<svg width="168" height="65" xmlns="http://www.w3.org/2000/svg"><path class="cls-1" d="M107.05 17.522a39 39 0 0160.76 0h.52a46 46 0 00-72.25 0h10.97zm-61.47 9.85c-1.77-.84-3.57-1.85-5.59-1.85-4.37 0-6.73 6-6.73 9.5 0 2.34 1.34 3.55 3.74 3.55a18.93 18.93 0 007.27-2.13l-1.1 5.51a32.45 32.45 0 01-8.95 1.85c-4.63 0-9.59-2.21-9.59-7.29a16.29 16.29 0 0116.23-15.51 15.6 15.6 0 015.76 1.29l-1.04 5.08zm-36.91 4.31c.37-2.1 2.1-5.72 4.75-5.72a1.53 1.53 0 011.68 1.65c0 2.85-2.61 4.14-6.43 4.07m14 4.47c-2.73 1.41-7.35 3.19-10.42 3.19-2.23 0-4.07-1-4.12-3.3 5.76.16 14.3-3.71 14.3-10 0-3.39-3.32-4.88-6.18-4.88a16.29 16.29 0 00-16.2 15.47c0 5.08 5 7.29 9.59 7.29a37 37 0 0011.94-2.41l1.09-5.36z" fill="#0061af"/><path class="cls-2" d="M58.31 36.402c1.72-2.48 5.47-8.79 7.59-8.79.68 0 .88.68.88 1.24 0 2-1.8 10.47-6.44 10.47a5.25 5.25 0 01-2.47-.72l.44-2.2zm2.92-14.77h-7.67l-6.31 31.5h7.71l2-9.91a15.94 15.94 0 003.12.36c7.55 0 14.42-9.78 14.42-16.77 0-2.88-1.84-5.71-5-5.71-4.43 0-8.51 6-10.11 9.63h-.48l2.32-9.1zm27.8-11.37h-7.66l-6.53 32.66h7.71l6.48-32.66zm78.95 12.05l-5.56-.07a.86.86 0 01-1.29.47 10 10 0 00-4.84-1.3c-9.83-.18-15.19 8.95-15.19 15.11 0 4.94 4.65 6.87 9 7.1 4.1.22 7-.73 9.17-2.61a6.35 6.35 0 005.54 1.92l1.85-4.48c-5.51 1.09-1.19-8.7 1.34-16.13m-10.46 11.81c-1.49 3.82-4.41 6.25-6.52 5.43s-2.62-4.58-1.13-8.4 4.41-6.25 6.52-5.43 2.62 4.58 1.13 8.4m-43.49-11.82l-5.55-.07a.87.87 0 01-1.29.47 9.93 9.93 0 00-4.83-1.3c-9.84-.18-15.19 8.95-15.19 15.11 0 4.94 4.65 6.87 9 7.1 4.1.22 7-.73 9.17-2.61a6.35 6.35 0 005.53 1.92l1.86-4.48c-5.51 1.09-1.19-8.7 1.33-16.13m-10.49 11.81c-1.49 3.82-4.41 6.25-6.52 5.43s-2.62-4.58-1.13-8.4 4.41-6.25 6.52-5.43 2.62 4.58 1.13 8.4m39.27-12h-22.41l-2 5.3s9.66-.54 10.21 0-15.4 15.7-15.4 15.7h5.5v.07h18.29l1.74-5.13c-1.57.31-11 .52-11.56 0 .51.5 16.91-17.14 15.67-16" fill="#231815"/><path class="cls-3" d="M165.23 52.022l-5.9 5.48 2.77-.19c-2.54 7.33-5 6.43-5 6.43-1.29 0-.55-2.25-.55-2.25l.65-2.76-.56.44-.44 1.24-.73 3a1 1 0 00.37.81h-.05.09c.88.74 2.9.46 3.19.42h-.02c4.23-.82 6.46-6.72 6.46-6.72l2.14 1.63-2.42-7.53z" fill="#878c90"/><path class="cls-4" fill="#7c8386" d="M1.25 64.542H0l2.23-9.47H4.4l.79 7.96 4.58-7.96h2.21l-2.23 9.47H8.41l1.98-8.41-4.95 8.41H4.17l-.91-8.41-2.01 8.41zm13.08.13a2.92 2.92 0 01-1.57-.33 1.68 1.68 0 01-.64-1.52 6.47 6.47 0 01.2-1.5 9.82 9.82 0 01.57-1.78 3 3 0 011.08-1.27 3.62 3.62 0 012-.48 2.51 2.51 0 011.76.51 1.75 1.75 0 01.47 1.32 4.34 4.34 0 01-.07.74c0 .26-.11.58-.2 1a4.66 4.66 0 01-1.46 2.77 3.45 3.45 0 01-2.12.58m.21-.88a1.61 1.61 0 001.38-.63 6.71 6.71 0 00.85-2.29 4.62 4.62 0 00.15-1.06 1.11 1.11 0 00-.3-.89 1.36 1.36 0 00-.87-.24 1.7 1.7 0 00-1.2.42 3.38 3.38 0 00-.83 1.74 9.19 9.19 0 00-.28 1.83 1.18 1.18 0 00.25.86 1.2 1.2 0 00.86.25m7.07-5.9l-.23 1a2.74 2.74 0 011.14-.94 4.16 4.16 0 011.43-.18l-.26 1.12h-.63a1.94 1.94 0 00-1.46.56 2.57 2.57 0 00-.62 1.23l-.92 3.91H18.9l1.56-6.62 1.18-.08zm7.82 3.66h-4.13a5.11 5.11 0 00-.16 1.15 1 1 0 00.31.84 1.28 1.28 0 00.81.21 1.49 1.49 0 001-.36 1.84 1.84 0 00.58-.88h1.31a2.57 2.57 0 01-1.07 1.59 3.55 3.55 0 01-2 .54 2.93 2.93 0 01-1.57-.33 1.68 1.68 0 01-.64-1.52 6.39 6.39 0 01.2-1.5 9.63 9.63 0 01.57-1.78 3 3 0 011.08-1.27 3.63 3.63 0 012-.48 2.51 2.51 0 011.62.41 1.56 1.56 0 01.48 1.27 7 7 0 01-.23 1.55l-.16.56zm-3.95-.81h2.86a5.25 5.25 0 00.16-1.16 1 1 0 00-.28-.81 1.42 1.42 0 00-.84-.2 1.48 1.48 0 00-1.06.39 3.59 3.59 0 00-.84 1.78m9.42-5.7h6.88l-.25 1.06h-2.77l-1.98 8.41h-1.34l1.98-8.41h-2.77l.25-1.06zm8.48 2.85l-.23 1a2.73 2.73 0 011.13-.94 4.16 4.16 0 011.43-.18l-.26 1.12h-.63a1.94 1.94 0 00-1.46.56 2.54 2.54 0 00-.62 1.23l-.92 3.91h-1.2l1.56-6.62 1.2-.08zm5.64 6.62l.23-1a2.58 2.58 0 01-2.14 1.09 1.78 1.78 0 01-1.23-.35 1.3 1.3 0 01-.37-1 3.4 3.4 0 01.1-.82 2.39 2.39 0 011.72-1.78 9.19 9.19 0 012.63-.27c0-.17.08-.34.12-.52a2.25 2.25 0 00.07-.5.8.8 0 00-.21-.59 1.13 1.13 0 00-.8-.24 1.43 1.43 0 00-1 .33 1.31 1.31 0 00-.46.85h-1.3a2.47 2.47 0 011-1.53 3.59 3.59 0 011.93-.46 2.56 2.56 0 011.57.38 1.19 1.19 0 01.44 1 2.58 2.58 0 01-.09.62l-.74 3.19q-.09.35-.16.79a4.73 4.73 0 00-.08.78l-1.23.03zm.74-3.29a7.74 7.74 0 00-1.78.13 1.56 1.56 0 00-1.19 1.19 1.85 1.85 0 000 .38.82.82 0 00.22.6.91.91 0 00.68.23 1.65 1.65 0 001.18-.46 3.74 3.74 0 00.93-2.08m8.6-6.17h1.19l-2.23 9.47h-1.2l.19-.79a3.15 3.15 0 01-.9.69 2.32 2.32 0 01-1 .23 2 2 0 01-1.25-.32 1.73 1.73 0 01-.55-1.47 7.17 7.17 0 01.22-1.54 12.25 12.25 0 01.48-1.65 3.26 3.26 0 011-1.35 2.84 2.84 0 011.82-.55 1.49 1.49 0 011.43.8l.8-3.52zm-1.38 5.9q.06-.24.12-.57a3.52 3.52 0 00.06-.6 1.31 1.31 0 00-.21-.79.94.94 0 00-.82-.34 1.55 1.55 0 00-1.37.68 6.29 6.29 0 00-.71 2c-.06.24-.11.46-.15.68a3.06 3.06 0 00-.07.62 1.27 1.27 0 00.26.83 1.09 1.09 0 00.88.31c.71 0 1.24-.45 1.59-1.35a12.64 12.64 0 00.42-1.48m8.31.62h-4.13a5.25 5.25 0 00-.16 1.15 1 1 0 00.31.84 1.28 1.28 0 00.81.21 1.49 1.49 0 001-.36 1.82 1.82 0 00.58-.88h1.28a2.58 2.58 0 01-1 1.59 3.55 3.55 0 01-2 .54 2.93 2.93 0 01-1.57-.33 1.68 1.68 0 01-.64-1.52 6.47 6.47 0 01.21-1.5 9.79 9.79 0 01.57-1.78 3 3 0 011.08-1.27 3.64 3.64 0 012-.48 2.51 2.51 0 011.62.41 1.56 1.56 0 01.48 1.27 7 7 0 01-.23 1.55l-.21.56zm-3.95-.81h2.86a5.08 5.08 0 00.16-1.16.94.94 0 00-.28-.81 1.41 1.41 0 00-.83-.2 1.49 1.49 0 00-1.06.39 3.61 3.61 0 00-.84 1.78m15.8-3.09h-1.38a3.41 3.41 0 00.15-.87.89.89 0 00-.13-.5.85.85 0 00-.47-.3 2.14 2.14 0 00-.6-.1 2.49 2.49 0 00-1.27.31 1.22 1.22 0 00-.49.42 3.62 3.62 0 00-.37.65 8.52 8.52 0 00-.41 1.31l-.6 2.53a5.8 5.8 0 00-.19 1.28 1.22 1.22 0 00.42 1.07 1.78 1.78 0 001 .24 2 2 0 001-.29 2.56 2.56 0 001.08-1.68h1.39a3.4 3.4 0 01-3.67 3 3.92 3.92 0 01-1.72-.29 1.89 1.89 0 01-.93-1.86 7.29 7.29 0 01.22-1.59l.63-2.68a4.44 4.44 0 011.56-2.71 4.35 4.35 0 012.63-.72 3 3 0 011.73.4 1.42 1.42 0 01.55 1.23 4.17 4.17 0 01-.21 1.16m5.36 6.85h-1.2l1.06-4.49a1.9 1.9 0 00.08-.52.81.81 0 00-.25-.64 1.19 1.19 0 00-.82-.22 1.68 1.68 0 00-1.33.56 3.29 3.29 0 00-.64 1.41l-.91 3.89h-1.2l2.23-9.47h1.2l-.86 3.7a2.73 2.73 0 011-.77 3.17 3.17 0 011.24-.21 1.94 1.94 0 011.19.3 1.15 1.15 0 01.39 1 3 3 0 01-.1.77l-1.08 4.69zm5.68 0l.23-1a2.58 2.58 0 01-2.14 1.09 1.77 1.77 0 01-1.23-.35 1.3 1.3 0 01-.37-1 3.67 3.67 0 01.1-.82 2.4 2.4 0 011.72-1.78 9.17 9.17 0 012.63-.27c0-.17.08-.34.12-.52a2 2 0 00.07-.5.78.78 0 00-.21-.59 1.12 1.12 0 00-.8-.24 1.43 1.43 0 00-1 .33 1.32 1.32 0 00-.46.85h-1.29a2.46 2.46 0 011-1.53 3.61 3.61 0 011.94-.46 2.56 2.56 0 011.57.38 1.19 1.19 0 01.44 1 2.44 2.44 0 01-.09.62l-.74 3.19q-.09.35-.16.79a5 5 0 00-.07.78l-1.26.03zm.74-3.29a7.7 7.7 0 00-1.77.13 1.56 1.56 0 00-1.2 1.19 1.73 1.73 0 000 .38.81.81 0 00.23.6.9.9 0 00.68.23 1.64 1.64 0 001.18-.46 3.7 3.7 0 00.93-2.08m7.66 3.3h-1.2l1.08-4.59a1.06 1.06 0 000-.22 2.12 2.12 0 000-.23.74.74 0 00-.22-.59 1.22 1.22 0 00-.83-.23 1.69 1.69 0 00-1.39.63 3.27 3.27 0 00-.57 1.32l-.93 3.92h-1.12l1.24-5.25a13 13 0 00.25-1.37h1.27l-.19.85h.03a2.91 2.91 0 011-.77 3 3 0 011.22-.21 1.87 1.87 0 011.22.31 1.18 1.18 0 01.37.94 3.28 3.28 0 01-.14.91l-1.09 4.58zm8.04-4.5h-1.24a2.57 2.57 0 00.08-.56.76.76 0 00-.23-.62.82.82 0 00-.56-.19 1.69 1.69 0 00-1.2.42 3.38 3.38 0 00-.84 1.74 9.18 9.18 0 00-.28 1.83 1.18 1.18 0 00.26.86 1.21 1.21 0 00.87.25 1.28 1.28 0 00.92-.46 2.06 2.06 0 00.49-1h1.25a2.76 2.76 0 01-1.26 1.86 3 3 0 01-1.6.47 2.91 2.91 0 01-1.57-.33 1.68 1.68 0 01-.65-1.52 6.42 6.42 0 01.21-1.5 9.78 9.78 0 01.57-1.78 3 3 0 011.08-1.27 3.61 3.61 0 012-.48q1.85 0 1.85 1.46a2.38 2.38 0 010 .41 2.45 2.45 0 01-.1.37m6.86 1.58h-4.13a4.85 4.85 0 00-.16 1.15 1 1 0 00.3.84 1.28 1.28 0 00.81.21 1.49 1.49 0 001-.36 1.89 1.89 0 00.59-.88h1.31a2.6 2.6 0 01-1.07 1.59 3.56 3.56 0 01-2 .54 2.93 2.93 0 01-1.57-.33 1.68 1.68 0 01-.64-1.52 6.26 6.26 0 01.2-1.5 9 9 0 01.57-1.78 2.94 2.94 0 011.08-1.27 3.63 3.63 0 012-.48 2.5 2.5 0 011.62.41 1.56 1.56 0 01.48 1.27 7.05 7.05 0 01-.23 1.55l-.16.56zm-3.95-.81h2.86a5 5 0 00.16-1.16 1 1 0 00-.28-.81 1.44 1.44 0 00-.84-.2 1.47 1.47 0 00-1.06.39 3.59 3.59 0 00-.84 1.78m10.2 1.88a2.4 2.4 0 01-1.11 1.55 3.7 3.7 0 01-1.94.47 2.91 2.91 0 01-1.58-.36 1.22 1.22 0 01-.54-1.1 2.36 2.36 0 01.1-.7h1.36a.63.63 0 000 .16 2 2 0 000 .33.73.73 0 00.19.54 1.09 1.09 0 00.8.25 1.82 1.82 0 001-.26 1.14 1.14 0 00.54-.75.72.72 0 000-.14c0-.27-.5-.64-1.49-1.11s-1.49-1-1.49-1.57a1.43 1.43 0 010-.35 2 2 0 01.75-1.17 3.44 3.44 0 012.2-.64 2.75 2.75 0 011.43.33 1.08 1.08 0 01.55 1 2.21 2.21 0 01-.09.56h-1.34a1.24 1.24 0 00.06-.34c0-.48-.32-.73-1-.73a1.65 1.65 0 00-.88.23 1 1 0 00-.47.66.71.71 0 000 .13c0 .28.5.65 1.5 1.11s1.5 1 1.5 1.55a1.49 1.49 0 010 .37m4.67-4.76h1.14l.31-1.28a1.87 1.87 0 011-1.3 3.36 3.36 0 011.53-.3 3.62 3.62 0 01.55 0l-.17.77a2.4 2.4 0 00-1.28.26 1 1 0 00-.42.68l-.28 1.12h1.5l-.19.81h-1.5l-1.37 5.82h-1.18l1.37-5.82h-1.14l.13-.76zm5.76 6.76a2.93 2.93 0 01-1.57-.33 1.68 1.68 0 01-.64-1.52 6.45 6.45 0 01.2-1.5 9.79 9.79 0 01.57-1.78 3 3 0 011.08-1.27 3.61 3.61 0 012-.48 2.52 2.52 0 011.76.51 1.76 1.76 0 01.46 1.32 4.48 4.48 0 01-.06.74c0 .26-.11.58-.2 1a4.67 4.67 0 01-1.45 2.77 3.45 3.45 0 01-2.12.58m.21-.88a1.6 1.6 0 001.38-.63 6.61 6.61 0 00.85-2.29 4.55 4.55 0 00.15-1.06 1.11 1.11 0 00-.29-.89 1.38 1.38 0 00-.88-.24 1.7 1.7 0 00-1.2.42 3.38 3.38 0 00-.83 1.74 9.23 9.23 0 00-.28 1.83 1.18 1.18 0 00.25.86 1.2 1.2 0 00.86.25m7.06-5.9l-.23 1a2.72 2.72 0 011.13-.94 4.14 4.14 0 011.43-.18l-.26 1.12h-.62a1.94 1.94 0 00-1.46.56 2.58 2.58 0 00-.62 1.23l-.92 3.91h-1.2l1.56-6.62 1.19-.08zm8.62 1.71l3.2-4.56h1.35l-4.25 5.87-.84 3.6h-1.34l.84-3.6-1.44-5.87h1.5l.98 4.56zm5.81 5.04a2.93 2.93 0 01-1.58-.33 1.68 1.68 0 01-.64-1.52 6.25 6.25 0 01.2-1.5 9.55 9.55 0 01.57-1.78 3 3 0 011.08-1.27 3.61 3.61 0 012-.48 2.52 2.52 0 011.76.51 1.76 1.76 0 01.46 1.32 4.58 4.58 0 01-.06.74c0 .26-.11.58-.2 1a4.69 4.69 0 01-1.46 2.77 3.43 3.43 0 01-2.12.58m.21-.88a1.6 1.6 0 001.38-.63 6.64 6.64 0 00.86-2.29 4.93 4.93 0 00.15-1.06 1.12 1.12 0 00-.3-.89 1.37 1.37 0 00-.88-.24 1.7 1.7 0 00-1.2.42 3.38 3.38 0 00-.83 1.74 9.15 9.15 0 00-.28 1.83 1.18 1.18 0 00.25.86 1.19 1.19 0 00.86.25"/><path class="cls-3" d="M157.05 64.712q-1.64 0-1.65-1.19a2.52 2.52 0 01.07-.51l1.18-5h1.19l-1.07 4.59a.91.91 0 000 .22 1.93 1.93 0 000 .22c0 .59.33.89 1 .89.36 0 .16.83-.65.83" fill="#878c90"/></svg>