<svg xmlns="http://www.w3.org/2000/svg" viewBox="0 0 385.201 385.201" width="512" height="512"><path d="M201.735 381.658l179.781-179.781a12.258 12.258 0 003.597-8.794c0-.096.048-.168.048-.265V12.364c0-6.641-5.39-12.03-12.03-12.03-.096 0-.168.048-.265.048a12.258 12.258 0 00-8.794 3.597L192.688 175.375 20.932 3.618c-4.824-4.824-12.644-4.824-17.468 0C.6 6.481-.35 10.367.179 14.084v176.978c-.529 3.717.421 7.603 3.284 10.466l180.118 180.118c2.502 2.502 5.799 3.645 9.083 3.549 3.273.097 6.569-1.034 9.071-3.537zM24.252 187.381V41.862l159.329 159.329c2.502 2.502 5.799 3.645 9.083 3.549 3.272.096 6.569-1.047 9.071-3.549L361.101 41.838v145.579L192.688 355.829 24.252 187.381z" fill="#fff"/></svg>