<svg id="_레이어_2" xmlns="http://www.w3.org/2000/svg" viewBox="0 0 383.15 383.24"><defs><style>.cls-1{fill:#fff}</style></defs><g id="_레이어_1-2"><path class="cls-1" d="M0 315.88c53.14 0 106.28.03 159.42-.07 2.86 0 4.08.79 4.94 3.54 3.11 9.96 6.52 19.83 9.97 30.21H0v-33.68zm89.63 22.4c2.12 0 4.26.21 6.34-.05 3.12-.38 5-2.36 5-5.51 0-3.16-1.87-5.27-5-5.49-4.09-.28-8.22-.28-12.31 0-3.12.22-5 2.33-5 5.49s1.88 5.12 5 5.52c1.96.25 3.98.05 5.97.05zm37.45 0c2.12 0 4.26.21 6.34-.05 3.12-.39 4.99-2.38 4.97-5.54-.01-3.16-1.9-5.26-5.02-5.47-4.09-.28-8.23-.29-12.31 0-3.12.22-4.99 2.35-4.97 5.51.02 3.16 1.9 5.11 5.02 5.5 1.96.24 3.98.05 5.97.04zM0 360.79c71.46 0 142.91 0 214.37.02 1.97 0 4.02.07 5.9.59 4.7 1.3 7.36 4.68 7.91 9.39.56 4.76-1.53 8.46-5.64 10.96-.82.5-1.65.99-2.47 1.48H0v-22.46zm289.52-122.58c-5.11 3.82-9.77 7.31-14.45 10.78-3.9 2.9-7.82 5.77-11.73 8.65-5.08 3.74-5.33 4.46-3.84 10.69 1.33 5.57 2.43 11.2 4.05 16.68.66 2.24 2.03 4.56 3.73 6.14 6.77 6.26 13.81 12.23 20.72 18.33 4.22 3.73 4.4 6.22.82 10.48-2.49 2.96-4.96 5.93-7.54 8.8-5.31 5.9-12.38 7.61-19.67 4.63-8.06-3.29-16.09-6.69-24.08-10.16-5.37-2.33-8.85-6.38-10.04-12.18-4.16-20.24-8.34-40.47-12.35-60.74-1.23-6.23.95-11.56 5.64-15.79 5.27-4.76 10.58-9.49 15.96-14.12 3.28-2.83 7.16-5.23 5.53-10.73h21.55c3.07 14.15 11.47 23.69 25.7 28.53zm19.06.03c14.18-4.97 22.55-14.37 25.62-28.56h21.46c-1.63 6.23 3.41 8.55 6.95 11.76 4.61 4.19 9.29 8.3 13.99 12.4 5.57 4.86 7.58 10.75 6.05 18.08-3.98 19.13-7.82 38.29-11.6 57.46-1.4 7.09-5.3 11.86-11.99 14.56-7.38 2.98-14.67 6.19-22.04 9.21-7.97 3.26-14.91 1.61-20.56-4.83-2.55-2.9-5.07-5.84-7.53-8.81-3.13-3.79-2.95-6.39.74-9.65 7-6.19 14.16-12.21 21.02-18.55 1.79-1.65 3.19-4.11 3.89-6.46 1.68-5.59 2.65-11.39 4.25-17.01 1.23-4.33.18-7.28-3.55-9.92-8.84-6.25-17.45-12.82-26.71-19.67zm-177.6-97.66c-.06 27.91-22.9 50.42-51.03 50.29-27.46-.12-50.11-23.03-50-50.58.11-27.91 22.73-50.53 50.48-50.47 28.06.06 50.62 22.71 50.56 50.75zm-22.45-.28c-.01-15.45-12.68-28.08-28.1-28.02-15.48.06-28 12.62-28.03 28.11-.03 15.4 12.7 28.08 28.11 28.01 15.49-.07 28.03-12.64 28.01-28.11zm29.95 164.22H22.46v-13.75c0-5.61.06-11.22-.02-16.82-.05-3.63 1.51-5.78 5.07-6.77 35.03-9.67 70.07-9.82 105.13-.18 4.82 1.32 5.83 2.68 5.83 7.64.02 9.83 0 19.66 0 29.88zm-58.04-11.07c2.49 0 4.98.1 7.47-.03 3.28-.17 5.51-2.37 5.63-5.34.12-3.11-2.14-5.67-5.57-5.78-4.97-.16-9.96-.16-14.94 0-3.44.11-5.72 2.61-5.63 5.72.08 2.96 2.31 5.21 5.57 5.39 2.48.13 4.98.03 7.47.03zM299.16 0c23.81.1 42.98 19.42 42.91 43.23-.07 23.56-19.45 42.9-42.95 42.83-23.81-.06-43.19-19.43-43.11-43.07C256.08 19.17 275.42-.1 299.16 0zm-.13 22.46c-11.39.03-20.63 9.36-20.56 20.77.06 11.17 9.42 20.45 20.58 20.39 11.46-.06 20.61-9.32 20.57-20.78-.04-11.16-9.37-20.4-20.58-20.37zm35.53 153.24c-6.9-.02-13 .51-19.32-3.21-10.56-6.22-22.12-5.89-32.82.14-4.38 2.47-8.55 3.56-13.37 3.2-1.71-.13-3.43-.02-5.44-.02-.11-13.72-1.87-27.27 7.48-38.9 9.26-11.52 24.85-16.38 39.02-11.8 14.03 4.53 24.03 17.78 24.43 32.57.16 5.85.03 11.7.03 18.02zm-35.48-26.66c-2.09.75-4.15 1.05-5.63 2.13-2.46 1.79-2.38 5.76-.21 7.93 2.43 2.42 8.87 2.51 11.42.15 2.26-2.08 2.53-6.07.12-7.92-1.54-1.18-3.72-1.53-5.7-2.29zm-164.33-39.07c-4.08-5.2-7.84-9.98-11.86-15.11 40.38-17.98 80.87-36.02 121.15-53.96 1.02 6.02 2.11 11.72 2.82 17.46.11.86-1.42 2.36-2.51 2.85-16.78 7.58-33.61 15.04-50.43 22.52-18.53 8.24-37.05 16.49-55.58 24.72-1.24.55-2.5 1.05-3.58 1.51zm116.81-39.62c4.3 5.1 8.36 9.92 12.55 14.89-40.39 17.98-80.86 35.99-121.37 54.03-1.12-6.33-2.19-12.38-3.35-18.99l112.18-49.94zm47.52 109.21c13.4 0 24.29 10.86 24.28 24.21-.01 13.49-11.12 24.53-24.56 24.43-13.27-.11-24.14-11.17-24.08-24.51.05-13.38 10.91-24.13 24.36-24.13zm-.23 29.85v.04c1.37 0 2.75.12 4.1-.02 3.24-.34 5.41-2.65 5.41-5.6 0-3.09-2.33-5.39-5.79-5.53-2.48-.1-4.98-.1-7.46.02-3.21.16-5.02 2.04-5.37 5.15-.34 2.93 1.84 5.47 5.01 5.91 1.34.19 2.73.03 4.1.03zM52.59 196.23c7.35 2.1 14.59 4.17 22.09 6.31v45.98c-7.39.62-14.66 1.23-22.09 1.86v-54.15zm33.66 6.34c7.45-2.13 14.69-4.2 22.06-6.31v54.06c-7.39-.6-14.65-1.2-22.06-1.8v-45.95zm192.36-85.83V93.37c13.67 5.21 27.18 5.21 40.85 0v23.36c-13.68-6.09-27.2-6.11-40.85 0zm-11.35 70.34c-1.25 3.83-2.4 7.31-3.65 11.13-10.68 0-21.48.11-32.27-.06-3.21-.05-5.44-2.75-5.22-5.69.22-3.13 1.98-5.28 5.16-5.32 11.91-.13 23.81-.05 35.98-.05zm67.23 11.15c-1.32-3.97-2.44-7.35-3.71-11.2h17.65c5.84 0 11.69-.06 17.53.03 3.56.05 5.89 2.21 6.02 5.29.14 3.11-2.08 5.77-5.53 5.82-10.67.15-21.35.05-31.96.05z"/><path class="cls-1" d="M80.46 157.18c-9.28 0-16.87-7.64-16.83-16.94.05-9.29 7.71-16.82 17.02-16.73 9.13.09 16.6 7.6 16.64 16.74.04 9.29-7.56 16.93-16.84 16.93zM308.38 43.03c0 5.05-4.19 9.28-9.25 9.34-5.19.05-9.52-4.33-9.42-9.53.1-5.06 4.37-9.2 9.43-9.14 5.06.05 9.25 4.28 9.24 9.33z"/></g></svg>