<svg id="_레이어_2" xmlns="http://www.w3.org/2000/svg" viewBox="0 0 346.58 275.66"><defs><style>.cls-1{fill:#fff}</style></defs><g id="_레이어_1-2"><path class="cls-1" d="M75.16 151.89c9.51-15.31 14.63-31.62 14.74-49.72H78.49c-.92 6.04-1.57 12.21-2.84 18.25-2.02 9.62-6.25 18.34-11.57 26.59-1.21 1.88-2.37 2.44-4.56 1.84-18.25-4.99-35.62-12.09-51.82-21.88-10.27-6.21-10.29-20.08.01-26.25 24.72-14.79 51.43-23.78 80.03-27.37 30.33-3.81 59.84.41 89.26 7.61 33.15 8.11 66.48 15.47 99.73 23.16 1.21.28 2.44.5 3.64.84 4.44 1.24 7.18 4.67 7.16 8.91-.02 4.23-2.75 7.75-7.24 8.84-8.23 2.01-16.5 3.86-24.75 5.75-33.63 7.73-67.2 15.7-100.9 23.09-25.88 5.67-51.98 5.55-78.07 1.01-.34-.06-.65-.31-1.42-.69zm188.27-42.86c-18.49-2.85-36.68-5.05-54.61-8.55-24.69-4.81-49.13-10.9-73.81-15.75-6.76-1.33-14-.2-21.13-.2.86 20.59-7.75 38.42-16.99 56.27 3.45 2.06 6.7 4 10.14 6.06 9.1-16.17 16.11-32.67 18.65-51.2 2.75.28 5.27.27 7.65.82 35.42 8.31 70.85 16.55 106.95 21.42 7.6 1.03 15.28 1.51 23.16 2.27v-11.14zm-227.46-1.36c-.1-3.25-2.9-5.88-6.14-5.78-3.25.1-5.88 2.89-5.78 6.14.1 3.25 2.9 5.89 6.13 5.79 3.24-.1 5.89-2.91 5.78-6.14zm299.43 87.68c.35 10.25-2.68 18.5-7.93 26-9.03 12.94-21.6 21.62-35.34 28.75-23.49 12.21-48.72 18.77-74.78 22.46-24.81 3.5-49.7 4.06-74.62 1.49-32.23-3.32-63.39-10.57-91.99-26.49-11.97-6.66-22.79-14.83-30.73-26.27-5.21-7.51-8.23-15.74-7.94-24.77 6.3 5.67 12.18 11.77 18.87 16.81 20.58 15.49 44.26 24.17 69.07 30.02 34.03 8.02 68.5 9.95 103.29 6.96 29.87-2.57 58.88-8.64 86.31-21.13 17.32-7.89 33-18.07 45.78-33.84z"/><path class="cls-1" d="M15.69 146.02c15.53 5.6 30.83 11.12 46.02 16.6-1.07.63-2.81 1.44-4.31 2.58-3.55 2.71-7.4 5.19-10.39 8.44-6.74 7.31-6.7 16.41-.32 24.08 5.34 6.41 12.49 10.24 19.98 13.45 16.06 6.89 33.04 10.29 50.22 12.67 27.26 3.78 54.66 4.81 82.13 3.07 27.31-1.73 54.42-4.83 80.11-15.09 5.39-2.15 10.67-4.97 15.39-8.34 14.75-10.53 14.73-24.83.14-35.56-9.28-6.83-19.96-10.77-30.99-13.54-11.29-2.84-22.75-5.02-34.02-7.47 20.11-5.5 41.11-8.58 61.68-15.29 8.81 16.83 23.37 25.16 43.37 24.16 1.69 6.69.59 13-1.69 19.09-4.53 12.15-13.26 20.99-23.44 28.49-18.47 13.6-39.47 21.64-61.47 27.23-33.67 8.55-67.86 10.88-102.45 7.76-29.12-2.63-57.39-8.69-84.02-21.12-16.09-7.51-30.97-16.78-41.43-31.65-8.28-11.76-10.78-24.48-5.18-38.21.28-.68.65-1.31.67-1.34zm164.35-76.68c1.5-9.75 6.56-16.33 15.41-19.87 9.05-3.62 17.09-.36 25.3 4.47 2.18-8.38 4.97-16.03 12.66-20.59 7.64-4.54 15.46-3.93 23.79-.78.72-1.79 1.34-3.36 1.97-4.92 4.18-10.38 13.63-16.43 24.36-15.59 10.43.82 19.16 8.23 21.3 18.99.85 4.3 2.59 5.07 6.62 5.04 17.22-.14 28.84 17.42 22.13 33.02-.71 1.66-1.39 2.82-3.69 2.87-17.24.31-29.9 8.22-38 23.45-.23.43-.57.8-.69.11-10.84-2.63-21.66-5.35-32.52-7.88-25.24-5.87-50.5-11.65-75.75-17.47-.84-.19-1.65-.48-2.89-.85zm113.31-33.56c.06-9.86-8.15-18-17.6-17.46v10.1c2.79 2.87 4.83 4.97 7.16 7.36h10.44zm12.03 6.47c-9.58-.4-17.77 7.76-17.56 17.5h10.26c2.73-2.7 4.81-4.76 7.3-7.22V42.24zm-59.89 16.17V48.26c-9.5-.5-17.71 7.65-17.59 17.48h10.37c2.55-2.58 4.52-4.59 7.22-7.32zm29.83 19.31c.28-9.68-7.89-17.85-17.53-17.53v10.21c2.73 2.78 4.78 4.87 7.2 7.32h10.34z"/><path class="cls-1" d="M189.12 204.36c1.77 3.61 3.39 6.92 5.12 10.46-1.24.19-2.08.41-2.93.44-37.2 1.31-74.08-.65-109.93-11.68-6.84-2.1-13.28-5.59-19.79-8.67-1.86-.88-3.49-2.42-4.95-3.93-3.54-3.65-3.83-7.1.08-10.34 4.16-3.45 8.9-6.39 13.75-8.8 8.21-4.08 16.74-6.11 26.28-4.91 16.54 2.08 33.12.68 49.6-1.63.96-.13 2.11-.38 2.89 0 9.24 4.5 18.42 9.11 27.42 14.36H66.22v11.92h72.51l.21.77c-4.94 1.89-9.88 3.79-15.13 5.8 1.4 3.75 2.69 7.22 4.14 11.11 4.02-1.46 7.85-2.82 11.65-4.24 10.61-3.97 21.19-8.04 31.85-11.91 2.28-.83 4.81-1.28 7.23-1.31 11.3-.13 22.6-.06 34.11.66-7.8 3.93-15.6 7.85-23.67 11.91zM198 20.22c15.69-2.96 21.31-2.11 26.84 3.69-3.78 4.26-7.54 8.49-11.78 13.26-9.48-2.56-19.37-1.39-28.47 4.38-9.11 5.78-14.41 14.22-16.44 24.98-6.34-1.23-12.49-2.67-18.72-3.57-7.39-1.07-14.83-1.86-22.27-2.37-3.28-.22-4.79-1.61-5.84-4.52-5.47-15.12 5.33-31.38 21.4-32.06 1-.04 2.01-.14 2.99 0 2.71.38 3.8-.54 4.36-3.44C152.38 8.77 160.79 1 171.69.09c11.17-.94 20.41 5.29 24.96 16.83.41 1.03.83 2.05 1.34 3.3zm-31.68 9.62c2.59-2.59 4.65-4.66 7.24-7.25V12.18c-9.69-.48-18.58 9.25-17.36 17.66h10.12zm-10.64 23.95c-.45-10.28-7.95-17.66-17.66-17.61v10.34c2.66 2.67 4.72 4.75 7.23 7.27h10.43z"/><path class="cls-1" d="M281.39 191.73v-11.98h-4.2c-22.83 0-45.66.04-68.49-.07-2.26-.01-4.7-.6-6.73-1.58-11.08-5.38-22.06-10.97-34.01-16.95 2.54-.67 4.26-1.03 5.93-1.57 11.51-3.78 23.24-3.47 35.11-2.35 21.03 1.98 41.88 4.82 61.79 12.18a85.193 85.193 0 0117.56 8.95c7.03 4.69 6.84 9.75.11 14.88-7.99 6.07-17.39 9.15-26.85 11.89-20.22 5.85-40.98 8.41-61.92 9.8-1.11.07-2.23 0-4.17 0 1.34-.87 2.04-1.43 2.82-1.82 13.47-6.76 26.93-13.53 40.46-20.18 1.59-.78 3.55-1.13 5.34-1.15 12.33-.1 24.65-.05 37.24-.05zm65.19-107.75c-2.24 12.56-12.89 22.46-25.92 23.63-6.65.6-13.41.1-20.13.1 1.52-12.09 13.27-22.79 26.38-23.66 6.44-.43 12.94-.07 19.67-.07zm-46.2 35.53c8.06.36 15.85.04 23.42 1.2 11.6 1.77 21.37 12.19 22.74 23.42-7.9-.36-15.82-.04-23.5-1.23-11.4-1.77-20.68-11.7-22.66-23.39z"/></g></svg>