<svg xmlns="http://www.w3.org/2000/svg" viewBox="0 0 383.06 363.57"><path d="M0 341.12h63.37V92.75H51V80.07H4.7V12.59h46.09V0h92.75v12.51h4.74c40.92 0 81.84.03 122.76-.06 2.87 0 4.82.88 6.8 2.89 20.18 20.39 40.46 40.69 60.71 61.02.94.94 1.83 1.93 3.31 3.5h-55.77v36.43h-22.5V80.24H143.8v12.2h-12.46v248.42h64.71v-134.3c1.45-.07 2.65-.17 3.85-.18 11.6-.01 23.21-.12 34.8.1 1.96.04 4.35 1.05 5.75 2.42 10.54 10.27 20.87 20.76 31.33 31.12.99.98 2.4 2.16 3.63 2.18 12.83.16 25.66.1 38.9.1v-93.37h57.56v192.12h11.19v22.51H0V341.1zm86.22-.26h22.05v-51.19H86.22v51.19zm22.2-197.79H86.27v50.34h22.15v-50.34zM86.21 266.7h22.15v-50.34H86.21v50.34zm156.49 52.45h22v-34.71h-22v34.71zm68.96-34.74v34.71h22v-34.71h-22zM86.23 92.75v27.34h22.08V92.75H86.23zm94.68-35.41c-7.51-7.49-14.37-14.35-21.25-21.17-.5-.5-1.2-1.11-1.82-1.12-4.66-.09-9.33-.05-13.83-.05v22.34h36.91zM27.1 57.23h23.5V35.17H27.11v22.06zm217.51-.03h42.24c-7.16-7.11-14.28-14.19-21.21-21.08-6.84 6.85-13.93 13.96-21.03 21.08zm-11.25-21.92h-41.68c6.94 6.91 13.96 13.91 20.84 20.76 6.69-6.66 13.66-13.6 20.84-20.76z" fill="#fff"/></svg>