<svg id="_레이어_2" xmlns="http://www.w3.org/2000/svg" viewBox="0 0 335.53 335.43"><defs><style>.cls-1{fill:#fff}</style></defs><g id="_레이어_1-2"><path class="cls-1" d="M281.59 155.69c17.51 6.51 34.67 12.86 51.77 19.35.92.35 1.53 1.83 2.02 2.91.28.62.05 1.47.05 2.22v155.25H8.82c-1.12 0-2.26.07-3.36-.07-3.23-.41-5.6-3.04-5.38-6.12.23-3.3 2.14-5.23 5.39-5.72 1.22-.18 2.49-.07 3.74-.07 33.68 0 67.37-.03 101.05.05 2.57 0 3.94-.7 5.1-3.11 5.86-12.25 11.92-24.4 18-36.55.61-1.22 1.65-2.83 2.76-3.09 10.4-2.42 20.86-4.58 31.91-6.95-2.28 4.36-4.24 8.09-6.2 11.83-2.67 5.1-2.27 8.63 1.17 10.44 3.54 1.86 6.71.26 9.34-4.71 10.14-19.17 20.31-38.31 30.35-57.53 1.31-2.52 2.76-3.94 5.71-4.5 11.02-2.06 21.97-4.46 32.96-6.71.57-.12 1.18-.1 2.17-.17-1.87 4.97-3.61 9.6-5.34 14.24-2 5.35-1.07 8.71 2.76 10.09 3.64 1.31 6.48-.62 8.41-5.73 10.2-27.04 20.39-54.08 30.59-81.12.48-1.27.98-2.54 1.64-4.25zm-111.51-59.1c-3.56 2.21-6.9 2.33-9.44-.63L53.33 203.3c2.4 3.81.24 7.12-3.26 10.47-7.3 6.98-14.32 14.26-21.48 21.39-4.29 4.27-6.87 4.28-11.08.09-4.68-4.67-9.36-9.34-14.03-14.03-4.7-4.72-4.67-7.08.13-11.88 7.32-7.33 14.64-14.65 21.96-21.97 3.88-3.87 5.22-4.13 10-2.15 35.67-35.69 71.28-71.33 106.92-107-3.13-4.55-3.18-4.99-.94-10.16-18.67-18.31-37.52-36.45-63.26-45-9.31-3.09-15.44-9.33-17.97-18.91-.31-1.17-.4-2.4-.68-4.14 38.44 5.07 74.6 14.23 102.24 43.68.96-1.03 1.61-1.76 2.3-2.46 2.86-2.9 6.03-3.23 8.89-.44 8.21 8.02 16.35 16.12 24.35 24.34 3.27 3.36 2.5 6.19-2.76 11.33 29.36 27.54 38.5 63.74 43.51 101.85-9.83-.14-19.06-6.76-22.38-16.84-8.66-26.29-26.81-45.73-45.75-64.86zm-43.64 130.94c-3.47.09-6.17-2.15-6.57-5.21-.42-3.17 1.52-5.84 5.16-6.68 10.07-2.31 20.16-4.52 30.25-6.76 7.29-1.62 14.58-3.24 21.87-4.84 4.45-.98 7.7.74 8.45 4.43.7 3.46-1.48 6.23-5.84 7.21-17.25 3.87-34.5 7.7-51.75 11.54-.61.13-1.22.25-1.56.32z"/><path class="cls-1" d="M197.66 179.5c-.12 4.17-3.83 7.08-7.62 5.86-12.07-3.88-24.1-7.91-36.1-12.05-3.4-1.17-4.82-4.44-3.78-7.5 1.12-3.29 4.19-4.86 7.81-3.68 11.71 3.82 23.38 7.73 35.06 11.64 2.9.97 4.51 2.97 4.62 5.73zm83.91-77.46c-.16.59-.32 1.45-.63 2.25-3.85 9.72-7.65 19.46-11.62 29.14-1.71 4.16-5.82 5.54-9.09 3.2-2.53-1.8-3.32-4.28-2.14-7.24 3.91-9.83 7.8-19.67 11.77-29.48 1.21-3.01 3.54-4.59 6.8-3.95 3.03.59 4.65 2.69 4.92 6.08z"/></g></svg>