<svg id="_레이어_2" xmlns="http://www.w3.org/2000/svg" viewBox="0 0 383.11 236.69"><defs><style>.cls-1{fill:#fff}</style></defs><g id="_레이어_1-2"><path class="cls-1" d="M0 113.08c4.23-12.74 8.52-25.45 12.68-38.21 7.49-22.95 14.9-45.93 22.36-68.89C36.91.21 39.16-.98 44.81.84c12.91 4.17 25.81 8.34 38.7 12.57 5.46 1.79 6.6 4.1 4.82 9.63-11.39 35.17-22.78 70.33-34.2 105.48-1.82 5.62-4.14 6.76-9.89 4.91-12.8-4.11-25.61-8.16-38.34-12.49-2.18-.74-3.94-2.72-5.89-4.12v-3.74zm189.77 114.26c3.92-9.56 3.06-18-4.33-24.8-7.24-6.66-15.6-6.99-24.56-2.52-3.29-7.31-8.41-12.66-16.35-14.6-7.91-1.94-15.07-.21-21.05 4.75-3.3-3.49-6.04-7.51-9.79-10.05-3.66-2.48-8.35-3.46-12.93-5.24-.32-2.25-.43-5.4-1.26-8.34-2.96-10.42-13.15-17.69-23.81-16.52-4 .44-6.37-1.1-8.73-3.58-2.94-3.09-4.17-5.75-2.13-10.67 4.6-11.13 7.8-22.84 11.53-34.32 5.77-17.76 11.51-35.53 17.27-53.3.34-1.04.78-2.04.87-2.26 7.23.53 14.02 1.5 20.78 1.32 3.51-.09 7.24-1.73 10.39-3.51 8.41-4.73 16.88-9.03 26.68-10.14 9.13-1.03 16.99 3.06 26.06 5.84-1.6.96-2.58 1.61-3.61 2.17-19.11 10.44-35.84 23.87-50.59 39.86-3.06 3.31-3.89 6.56-1.6 10.44 3.21 5.45 5.94 11.31 9.89 16.17 6.66 8.19 15.55 10.26 25.63 6.92 20.32-6.74 40.63-13.52 61.01-20.08 2.16-.7 4.89-.65 7.09-.03 28.45 8 53.67 22.41 77.51 39.5 1.5 1.08 2.9 2.39 4.1 3.8 4.43 5.24 4.75 11.28 1 16.09-3.91 5.02-10.49 6.49-16.47 3.41-8.08-4.16-16.07-8.52-24.1-12.79-7.92-4.21-15.85-8.4-23.77-12.61-2.7-1.44-5.68-1.62-7.51.77-1.32 1.72-2.05 4.59-1.66 6.7.3 1.65 2.5 3.31 4.24 4.27 10.59 5.81 21.32 11.38 31.96 17.11 5.37 2.9 8.05 7.87 7.33 13.17-1.26 9.28-10.62 14.2-19.13 9.83-10.3-5.29-20.47-10.85-30.7-16.29-.99-.53-1.97-1.09-2.99-1.54-3.52-1.58-7.05-.51-8.69 2.59-1.67 3.15-.69 6.68 2.75 8.62 5.42 3.06 10.97 5.9 16.47 8.83 1.65.88 3.34 1.68 4.94 2.64 6.31 3.8 8.46 11.26 5.08 17.48-3.37 6.2-10.86 8.59-17.41 5.23-9.42-4.83-18.72-9.9-28.07-14.87-.88-.47-1.74-.98-2.64-1.4-3.79-1.77-7.31-.81-9.03 2.43-1.74 3.27-.6 6.77 3.08 8.79 6.67 3.65 13.43 7.11 20.1 10.75 4.5 2.46 6.49 6.51 5.56 10.79-1.35 6.16-7.44 9.58-13.2 7.01-5.09-2.27-9.94-5.09-15.17-7.81z"/><path class="cls-1" d="M289.28 47.09c8.5 26.23 16.94 52.31 25.39 78.39-.21.14-.42.29-.64.43-2.71-1.87-5.42-3.73-8.12-5.62-24.45-17.12-50.54-30.92-79.52-38.69-2.48-.66-5.5-.68-7.93.1-20.62 6.6-41.16 13.46-61.72 20.23-9.34 3.08-13.08 1.67-18.26-6.85q-3.82-6.3 1.25-11.38c21.6-21.51 46.99-36.64 76.13-45.66 7.91-2.45 15.52-2.1 23.06.61 4.9 1.76 9.99 3.59 14.18 6.56 9.04 6.41 18.65 6 28.64 3.93 2.41-.5 4.77-1.28 7.53-2.04zM341.5 0c4.03.09 5.6 2.35 6.6 5.47 5.14 16 10.36 31.97 15.54 47.96 6.18 19.06 12.34 38.13 18.52 57.2 2.07 6.41.95 8.62-5.31 10.63-12.56 4.03-25.11 8.1-37.67 12.13-5.97 1.92-8.23.8-10.13-5.06-11.37-35.04-22.73-70.09-34.08-105.15-1.86-5.74-.7-7.96 5-9.82C312.63 9.23 325.29 5.1 337.96.98c1.29-.42 2.62-.73 3.55-.99zM88.22 173.42c-.87 2.15-1.46 4.46-2.66 6.41-2.73 4.45-5.68 8.77-8.68 13.05-3.89 5.54-10.22 6.89-15.3 3.4-4.98-3.42-6.09-9.62-2.53-15.17 3.09-4.82 6.24-9.61 9.63-14.22 2.93-3.99 7.53-5.21 11.97-3.64 4.29 1.51 7.05 5.4 7.56 10.17zm-8.05 40.17c.86-2.15 1.43-4.47 2.63-6.42 2.73-4.45 5.69-8.76 8.68-13.05 3.88-5.58 10.11-6.95 15.26-3.49 5.14 3.45 6.2 9.75 2.47 15.46-3.06 4.69-6.13 9.38-9.43 13.9-2.86 3.92-7.55 5.23-11.98 3.76-4.19-1.39-7.07-5.42-7.62-10.16zm58.15-16.98c8.44.97 13.65 9.36 9.72 16.33-3.16 5.62-6.89 10.96-10.77 16.11-3.36 4.46-9.53 5.1-14.09 2.04-4.5-3.03-6.2-9.07-3.35-13.83 3.25-5.43 6.69-10.83 10.67-15.73 1.84-2.26 5.17-3.32 7.82-4.92zm40.95 21.71c-.3.8-.6 2.32-1.37 3.53-2.46 3.89-4.99 7.74-7.69 11.46-2.66 3.66-7.06 4.38-10.54 1.99-3.35-2.3-4.36-6.55-2.1-10.23 2.53-4.13 5.24-8.17 8.1-12.09 2.13-2.92 5.22-3.78 8.64-2.53 3.27 1.19 4.83 3.74 4.96 7.86z"/></g></svg>