<svg id="_레이어_2" xmlns="http://www.w3.org/2000/svg" viewBox="0 0 379.58 374.54"><defs><style>.cls-1{fill:#fff}</style></defs><g id="_레이어_1-2"><path class="cls-1" d="M379.56 234.68H272.74V38.22h106.82v196.46zm-85.3-124.93v32.63h8.48v-32.63h-8.48zm-137.9 56.89V38.22h106.76v196.29h-41.81c1.12-10.31 2.23-20.45 3.34-30.59.27-2.48.52-4.96.86-7.43 2.32-16.66-8.4-29.44-25.35-29.77-13.09-.26-26.19-.07-39.28-.08h-4.52zm78.93-56.86v32.53h8.59v-32.53h-8.59z"/><path class="cls-1" d="M210.86 244.86H22.93c-.99-8.79-1.98-17.44-2.94-26.1-.86-7.68-1.57-15.38-2.56-23.05-1.5-11.67 4.61-19.21 16.4-19.98 1.12-.07 2.24-.06 3.37-.06 53.14 0 106.29-.08 159.43.13 4.43.02 9.17 1.25 13.18 3.16 5.41 2.58 7.62 7.69 6.96 13.75-1.55 14.25-3.17 28.5-4.78 42.74-.35 3.08-.74 6.16-1.14 9.4zM117.23 346.1H8.39c-7.01 0-8.37-1.34-8.38-8.25v-25.06c0-6.75 1.4-8.17 8.1-8.17h188.51c10.35 0 20.7-.02 31.05 0 5.78.02 7.33 1.57 7.35 7.32.02 8.85.02 17.7 0 26.56-.01 6.19-1.46 7.59-7.82 7.59H117.23zm0-50.57H8.39c-7.21 0-8.41-1.19-8.37-8.55.02-3.61-.06-7.25.36-10.82 1.48-12.49 11.82-21.93 24.38-21.94 61.84-.08 123.68-.08 185.51 0 13.46.02 24.09 10.58 24.66 24.09.15 3.49.1 6.98.07 10.47-.05 5.1-1.64 6.73-6.7 6.75-10.6.04-21.19.01-31.79.01h-79.29z"/><path class="cls-1" d="M379.55 244.05v63.13H244.26c-1.19-2.34-2.36-4.66-3.5-6.89 5.99-10.45 3.28-21.41 1.87-32.73h48.9v-9.07c-.93-.09-1.89-.27-2.84-.27-15.21-.02-30.43-.02-45.64 0-1.82 0-4.1-.62-3.37 3.85-5.28-7.64-11.04-12.41-18.37-15.19-.52-.2-1.24-1.27-1.11-1.5.36-.62 1.06-1.19 1.74-1.44.66-.24 1.48-.06 2.23-.06h151.52c1.21 0 2.42.1 3.87.17zM229.6 374.51v-19.06c6.04-.75 10.78-3.39 13.59-9.08.38-.76 2.35-1.03 3.58-1.03 13.47-.07 26.95-.04 40.42-.04h4.34v-9.2h-47.1v-19.3h135.04v57.71H229.6zM379.58 28.75H156.39V0h223.19v28.75zM156.46 355.22c11.67 0 23.11-.04 34.55.08.88 0 2.25 1.05 2.54 1.9 1.93 5.63 3.62 11.33 5.49 17.34h-42.58v-19.33zm46.13.15h17.47v18.52c-3.47 0-6.68.12-9.87-.09-.81-.05-1.98-1.02-2.25-1.81-1.85-5.38-3.5-10.83-5.34-16.62zm-184.42-.01h17.39c-1.79 5.79-3.44 11.37-5.3 16.88-.25.74-1.57 1.52-2.44 1.58-3.1.19-6.21.07-9.64.07v-18.53z"/></g></svg>