<svg id="_레이어_2" xmlns="http://www.w3.org/2000/svg" viewBox="0 0 280.37 408.65"><defs><style>.cls-1{fill:#fff}</style></defs><g id="_레이어_1-2"><path class="cls-1" d="M120.47 408.65c-9.12-2.35-16.62-6.82-20.93-15.64-3.22-6.6-3.13-13.59-2.84-20.98h86.37c2.09 13.91-1.38 31.15-23.47 36.62h-39.12zm31.93-117.93v-88.91c1.53 0 3.06.03 4.59 0 10.76-.22 21.62.37 32.27-.84 20.1-2.29 35.99-20.48 36.62-40.68.15-4.92.11-9.84.08-14.77-.06-8.85-4.63-13.55-13.55-13.62-13.17-.11-26.34-.03-39.52-.02-.8 0-1.61-.01-2.39.13-5.96 1.08-11.92 2.19-18.28 3.37 0-5.54.13-11.6-.02-17.65-.47-18.72-8.84-32.65-25.94-40.55-4.93-2.27-10.69-3.54-16.13-3.74-14.48-.52-29-.27-43.5-.19-7.59.04-12.46 4.94-12.44 12.57.02 7.03-.29 14.18.79 21.08 3.21 20.43 20.56 35.33 41.29 35.94 8.91.26 17.83.09 26.74.11h4.6V290.3c-.76.13-1.63.39-2.5.4-10.38.03-20.76 0-31.13.05-1.89 0-3.27-.14-3.71-2.48-2.28-12.04-9.33-20.57-19.8-26.58-15.99-9.18-29.59-21.09-41.06-35.56-40.24-50.74-39.08-125.87 2.84-175.19C54.89 24.3 83.23 7.31 117.85 1.79 192.4-10.09 262.19 38.38 277.53 112.3c11.95 57.61-14.53 117.75-65.36 147.79-10.23 6.05-18.83 13.3-21.53 25.29-1.08 4.8-3.19 5.57-7.49 5.44-10.09-.3-20.19-.1-30.74-.1zm-71.03 56.37v-31.78h117.24v31.78H81.37z"/><path class="cls-1" d="M127.55 117.63c-10.72 0-21.24.59-31.66-.16-11-.79-17.6-9.17-17.48-20.74.97-.1 1.97-.3 2.98-.3 9.31 0 18.63-.2 27.93.09 11.13.35 19.17 9.69 18.24 21.11zm24.96 58.89c-.65-11.58 6.69-20.52 17.59-21.02 10.43-.48 20.9-.1 31.31-.1 1.31 9.97-6.21 20.09-16.05 20.78-9.39.65-18.84.28-28.27.35-1.44.01-2.87 0-4.58 0z"/></g></svg>