<svg id="_레이어_2" xmlns="http://www.w3.org/2000/svg" viewBox="0 0 365.29 383.23"><defs><style>.cls-1{fill:#fff}</style></defs><g id="_레이어_1-2"><path class="cls-1" d="M62.13 383.23c-8.84-3.27-11.77-9.74-11.74-18.95.21-64.23.14-128.45.02-192.68 0-3.56 1.16-5.59 3.96-7.61 41.81-30.24 83.56-60.59 125.27-90.97 2.03-1.48 3.4-1.99 5.75-.27 41.88 30.57 83.83 61.06 125.85 91.44 2.78 2.01 3.62 4.12 3.61 7.4-.08 64.23-.16 128.46.04 192.68.03 9.2-2.89 15.69-11.74 18.95H62.13zm195.04-121.29c3.58 0 6.82.13 10.05-.03 5.98-.28 10.1-4.68 9.96-10.42-.14-5.57-4.31-9.65-10.17-9.77-4.74-.1-9.49-.23-14.22.04-3.07.18-5.02-.97-7.01-3.17-17.76-19.6-35.61-39.1-53.46-58.62-7.03-7.69-12.3-7.69-19.31-.02-17.59 19.24-35.2 38.46-52.68 57.81-2.52 2.79-4.98 4.36-8.91 4.02-4.46-.39-8.98-.17-13.46-.05-5.7.15-10.04 4.49-10.11 9.93-.08 5.42 4.16 9.88 9.85 10.24 2.24.14 4.52.29 6.73 0 3-.38 4.03.94 4.7 3.67 5.5 22.5 11.13 44.97 16.71 67.45 2.76 11.11 9.44 16.37 20.89 16.37h71.48c11.97 0 18.47-5.14 21.35-16.74 5.82-23.44 11.68-46.86 17.63-70.73z"/><path class="cls-1" d="M182.67 0c10.3 7.47 20.49 14.85 30.66 22.24 47.4 34.44 94.78 68.91 142.22 103.29 5.31 3.84 9.36 8.29 9.7 15.12.39 7.85-3.16 13.85-9.78 17.69-6.81 3.95-13.64 3.11-19.99-1.5-27.44-19.93-54.86-39.86-82.3-59.79l-62.94-45.72c-5.76-4.18-9.44-4.17-15.25.04-48.2 35.02-96.42 70.03-144.61 105.08-6.43 4.68-13.24 5.99-20.28 2.05-6.81-3.82-10.49-9.88-10.07-17.89.31-6.01 3.42-10.46 8.25-13.96 33.41-24.22 66.78-48.5 100.16-72.75 23.3-16.93 46.6-33.85 69.9-50.77 1.4-1.02 2.81-2.02 4.34-3.12zm53.5 262.11c-1.89 7.58-3.71 14.92-5.55 22.26-3.47 13.89-7.01 27.75-10.33 41.67-.59 2.45-1.57 3.16-4 3.15-22.44-.08-44.88-.08-67.32 0-2.44 0-3.39-.73-3.99-3.16-4.99-20.43-10.16-40.82-15.26-61.23-.2-.82-.2-1.69-.32-2.7h106.75zm-53.52-62.6c12.82 14.04 25.33 27.72 38.26 41.88h-76.48c12.83-14.06 25.35-27.78 38.22-41.88z"/></g></svg>