<svg id="_레이어_2" xmlns="http://www.w3.org/2000/svg" viewBox="0 0 359.03 347"><defs><style>.cls-1{fill:#fff}</style></defs><g id="_레이어_1-2"><path class="cls-1" d="M179.32 275.53v71.46h-41.8c0-4.21.08-8.3-.02-12.38-.3-12.78-6.06-22.35-17.73-27.61-12.38-5.58-24.13-4.04-34.33 5.33-3.2 2.94-5.99 6.32-8.78 9.29l-51.59-51.5c2.74-2.5 5.82-5.04 8.59-7.87 9.68-9.86 12.09-22.3 6.2-35.13-5.48-11.93-15.3-17.62-28.41-17.67-3.73-.01-7.46 0-11.47 0v-71.88c3.93 0 7.88.04 11.83 0 12.95-.14 22.64-5.85 28.08-17.6 5.87-12.66 3.54-25.18-5.84-34.89-2.85-2.94-5.94-5.65-8.72-8.28 17.27-17.22 34.1-33.99 51.92-51.76 2.32 2.72 4.75 6.08 7.69 8.93 10.18 9.86 22.12 11.73 34.83 6.04 11.97-5.37 17.66-15.26 17.73-28.35.02-3.83 0-7.67 0-11.67h41.67v71.53c-33.18 1.06-60.52 14.15-80.88 40.6-15.19 19.73-21.94 42.39-20.53 67.2 3.04 53.27 46.66 95.56 101.54 96.22zM73.97 71.4l-7.61-7.28c-3.2 2.8-5.97 5.23-9.04 7.93 2.96 2.68 5.7 5.16 8.38 7.58 2.55-2.54 5.25-5.22 8.27-8.23zm-.73 204.12c-2.6-2.69-5.24-5.43-7.21-7.48-2.77 2.26-5.71 4.65-8.24 6.71 2.89 3.16 5.37 5.88 8.18 8.95 2.64-2.97 5.1-5.73 7.27-8.18zM17.97 167.69v11.52h11.51v-11.52H17.97zm340.08-13.03c-1.08.23-1.9.47-2.75.57-2.83.32-5.67.59-8.94.92-5.19-38.56-21.96-70.99-51.52-96.31-29.58-25.34-64.23-36.85-103.15-36.09-.1-.77-.22-1.24-.22-1.71-.02-3.23 0-6.47 0-9.68 72.48-5.37 155.57 49.61 166.6 142.3zm-11.85 36.22c3.94.43 7.61.84 11.28 1.25-5.47 74.86-76.07 146.78-165.81 142.83v-11.62c38.6.71 73.28-10.69 102.86-35.99 29.6-25.32 46.47-57.69 51.67-96.47zm-98.28-73.55c12.46 13.78 19.75 30.53 21.39 50.03h-41.65c-.47-5.12-.8-10.3-1.47-15.44-.65-4.94-1.76-9.81-2.41-14.75-.15-1.17.35-3 1.21-3.62 7.41-5.42 14.97-10.63 22.93-16.22z"/><path class="cls-1" d="M123.4 230.17c-12.87-14.2-20.1-30.89-21.83-50.36h41.49c.88 7.41 1.72 14.92 2.67 22.42.44 3.44 2.44 7.47 1.25 10.1-1.2 2.63-5.65 3.65-8.41 5.73-5.06 3.82-9.92 7.9-15.17 12.11zm23.97-94.95c-1.43 10.4-2.91 21.1-4.42 32.07h-41.34c1.69-19.3 9.01-35.94 21.82-50.02 8.05 6.04 15.94 11.95 23.93 17.94zm121.95 44.53c-1.82 19.36-9.06 36.01-21.85 49.99-8.04-6.02-15.93-11.94-23.94-17.94 1.4-10.17 2.89-20.96 4.42-32.04h41.37zm18.3-87.77c-.84.49-1.43.75-1.92 1.14-2.52 2.03-5.01 4.1-7.74 6.35-22.95-25.79-51.69-39.06-86.31-39.87V47.69c38.16.65 69.81 15.21 95.97 44.29zm-9.34 155.57c3.08 2.65 5.98 5.14 9.06 7.79-25.61 28.66-57.26 43.21-95.62 44.06v-11.94c34.38-.73 63.22-13.83 86.56-39.91zm31.1-30.04c-4.01-1.48-7.46-2.76-11.24-4.16 9.48-26.62 9.49-53.01 0-79.65 3.76-1.4 7.21-2.68 11.18-4.15 10.56 29.38 10.47 58.38.05 87.96zm-130.18-14c-6.68 1.29-13.12 2.53-20.49 3.96-1.2-8.98-2.42-18.14-3.69-27.66h24.18v23.71zm-20.45-63.96c7.28 1.42 13.8 2.7 20.52 4.02v23.76h-24.21c1.25-9.45 2.47-18.61 3.69-27.78zm53.5.03c1.19 9.18 2.37 18.26 3.59 27.68h-24.15v-23.71c6.54-1.26 13.08-2.52 20.56-3.97zm-.09 67.88c-7.37-1.42-13.81-2.67-20.5-3.96v-23.77h24.16c-1.24 9.37-2.44 18.53-3.66 27.72zm-60.9-83.88c-6.59-5.15-12.7-9.93-19.18-14.99 14.27-11.37 29.54-17.35 46.77-18.66-14.74 6.14-21.42 18.95-27.59 33.65zm40.83-33.62c17.15 1.25 32.37 7.23 46.22 18.19-5.5 6.08-11.72 10.8-18.94 14.74-5.87-13.84-12.44-26.81-27.27-32.92zm-60.11 148.45c6.69-5.15 12.81-9.87 19.29-14.86 6.15 14.53 12.77 27.43 27.58 33.55-17.2-1.26-32.43-7.28-46.88-18.69zm87.67-14.9c6.5 5.04 12.62 9.79 19.23 14.91-14.29 11.39-29.54 17.39-46.76 18.65 14.83-6.12 21.39-19.1 27.54-33.56zm-40.42-92.11c-5.64-1.16-10.94-2.24-16.66-3.42 3.71-9.79 7.72-18.54 16.66-24.74v28.16zm29.15-3.42c-5.71 1.16-11.08 2.25-16.76 3.4v-28.21c8.92 6.19 12.89 14.99 16.76 24.8zm-29.03 87.59v28.34c-8.93-6.2-12.89-14.97-16.84-24.79 5.69-1.2 11.04-2.33 16.84-3.55zm12.33.1c5.6 1.13 10.89 2.19 16.63 3.35-3.66 9.82-7.88 18.41-16.63 24.78v-28.12zm94.94-104.72l9.92-6.67c2.48 4.27 4.81 8.29 7.3 12.58-3.63 1.87-6.9 3.56-10.4 5.37-2.31-3.81-4.48-7.4-6.82-11.28zm.18 125.17c2.25-3.84 4.35-7.44 6.61-11.29 3.48 1.78 6.75 3.45 10.42 5.33-2.39 4.26-4.66 8.32-7.08 12.62-3.49-2.34-6.66-4.45-9.95-6.66zm72.23-68.39v11.52h-11.59v-11.52h11.59z"/></g></svg>