<svg id="_레이어_2" xmlns="http://www.w3.org/2000/svg" viewBox="0 0 477.6 459.6"><defs><style>.cls-1{fill:#fff}</style></defs><g id="_레이어_1-2"><path class="cls-1" d="M0 459.6v-15.87h39.91v-6.81c0-106.06.02-212.12-.09-318.19 0-3.76 1.2-5.72 4.43-7.57 63.6-36.5 127.13-73.11 190.63-109.8 2.86-1.65 4.96-1.91 7.98-.17A60802.94 60802.94 0 00433.1 110.73c3.71 2.13 5.04 4.38 5.03 8.66-.13 105.91-.1 211.81-.1 317.72v6.44h39.57v15.92H6.06c-2.02 0-4.04.07-6.06.11zm166.79-48.18h128.45c7.38-21.02 20.15-31.87 39.13-31.64 20.94.26 33.32 12.31 39.52 31.9 10.1 0 20.2.04 30.3-.01 7.55-.04 10.06-2.57 10.09-10.15.04-11.35.02-22.71.01-34.06 0-9.52-2-11.53-11.44-11.54H63.8c0 16.62-.13 32.75.09 48.87.06 4.06 2.97 6.56 7.07 6.72 5.73.23 11.47.06 17.08.06 8.03-21.61 20.72-31.79 39.56-31.95 17.76-.15 30.54 10.18 39.18 31.79zm16.03-71.67V220.94h-15.77v15.51c-12.21 0-23.99.17-35.76-.08-5.18-.11-8.4 1.94-10.76 6.44-16.3 31.07-32.71 62.08-49.07 93.12-.61 1.15-1.03 2.4-1.64 3.81h113zm103.36-215.19c.2-.61.45-1.04.45-1.46.03-21.46.1-42.91-.07-64.37-.01-1.4-1.55-3.27-2.88-4.09-13.64-8.36-27.43-16.47-41.08-24.83-2.6-1.59-4.49-1.65-7.14-.02-13.5 8.3-27.09 16.45-40.76 24.45-2.65 1.55-3.54 3.25-3.52 6.27.14 18.35.07 36.69.07 55.04v9h94.93zM215.32 275.8h79.19v-47.16h-79.19v47.16zm174.64.15v-47.28h-78.93v47.28h78.93zm-174.51 16.56v47.12h79.1v-47.12h-79.1zm78.97-80.31v-47.51c-23.52 0-46.65-.01-69.78 0-6.76 0-9.54 2.76-9.6 9.69-.1 9.78-.03 19.56-.03 29.35v8.47h79.41zm95.63 80.38h-78.94v47.07h78.94v-47.07zm.21-80.33c0-12.88.03-25.29-.01-37.7-.02-7.16-2.72-9.85-9.84-9.86-21.76-.02-43.53-.01-65.29 0-1.35 0-2.7.16-4.06.25v47.31h79.21zM103.6 419.35c-.08 13.6 10.19 24.08 23.7 24.19 13.5.11 23.94-10.3 23.97-23.89.03-13.47-9.98-23.64-23.45-23.83-13.67-.2-24.15 9.98-24.23 23.53zm230.99-23.54c-13.69-.02-23.88 10.19-23.84 23.89.04 13.4 10.17 23.67 23.54 23.84 13.43.17 24.08-10.31 24.15-23.78.07-13.59-10.24-23.94-23.85-23.96z"/><path class="cls-1" d="M270.77 108.64h-23.51V51.85c7.79 4.67 15.1 8.98 22.3 13.45.7.44 1.15 1.82 1.15 2.76.07 13.36.05 26.71.05 40.57zm-40.08.01h-23.53c0-8.64-.02-17.13 0-25.62.02-5.58-1.75-12.25.69-16.46 2.53-4.38 9.14-6.42 14.01-9.41 2.71-1.67 5.52-3.2 8.82-5.11v56.6zm8.55 135.99h31.33v15.35h-31.33v-15.35zm126.89-.3v15.95c-9.92 0-19.53.06-29.13-.11-.84-.02-1.69-1.58-2.47-2.48-.16-.18-.02-.6-.04-.91q-.63-12.45 11.74-12.45h19.89zm-126.92 64.03h31.23v15.46h-31.23v-15.46zm.05-127.64h31.12v15.47h-31.12v-15.47zm126.89 127.8v15.34h-31.24v-15.34h31.24zm-.02-112.28h-31.39v-15.3h31.39v15.3zM135.1 427.39h-15.23v-15.33h15.23v15.33zm207.15-.01h-15.22v-15.32h15.22v15.32z"/></g></svg>