<svg id="_레이어_2" xmlns="http://www.w3.org/2000/svg" viewBox="0 0 367.03 367.06"><defs><style>.cls-1{fill:#fff}</style></defs><g id="_레이어_1-2"><path class="cls-1" d="M111.76 48.09h255.17v143.38h-27.35c.74-1.09 1.3-1.95 1.9-2.79 6.91-9.75 11.39-20.25 9.14-32.51-1.45-7.88-6.61-12.17-14.61-12.31-10.6-.19-21.2-.31-31.8-.13-12.22.2-23.35 3.65-32.66 12.34-7.34-6.64-15.78-11.13-25.51-11.59-13.93-.65-27.92-.71-41.86-.3-6.99.21-11.78 6.7-12.34 14.71-.77 10.99 3.01 20.56 9.27 29.33.69.97 1.41 1.93 2.57 3.5h-21.47c-2.5 0-4.99-.06-7.48.07-8.27.42-14.9 6.94-14.99 15.27-.17 16.35-.17 32.7 0 49.04.08 8.28 5.79 13.84 15.56 15.62v47.46H90.63c1.72-1.81 3.1-3.17 4.38-4.61 11.29-12.65 16.77-27.46 16.76-44.41-.03-72.38-.01-144.76-.01-217.14v-4.91zM95.85 228.93C70.62 201.56 27.12 200.2.24 228.5c-.09-1.23-.22-2.15-.22-3.08 0-59.12-.08-118.24.03-177.37C.1 24.79 16.23 5.13 38.27.93c30.53-5.83 57.48 16.53 57.55 48 .11 49.02.03 98.04.03 147.06v32.95z"/><path class="cls-1" d="M47.83 319.34C21.08 319.25-.08 297.93.04 271.18c.12-26.38 21.64-47.71 48.07-47.64 26.03.06 47.68 21.71 47.72 47.73.04 26.63-21.45 48.15-48 48.07zm.06-63.77c-8.75 0-15.98 7.19-16 15.93-.02 8.68 7.21 15.93 15.98 16.02 8.63.08 15.99-7.29 15.97-15.98-.03-8.81-7.17-15.96-15.94-15.97zm255.77 16.07h47.43v95.35h-47.43v-95.35zm-64.26.06v95.35h-47.42V271.7h47.42zm32.16-83.62c3.5-18.06 15.91-28.34 33.31-28.38 8.85-.02 17.7 0 26.56 0h3.62c.81 14.93-11.36 29.29-26.3 31.46-.12.02-.25.04-.37.04-24.54 0-49.11.73-73.62-.24-15.24-.6-27.31-15.67-26.99-31.25h4.71c9.35 0 18.7-.13 28.05.06 14.14.28 26.46 10.24 29.92 23.92.3 1.19.6 2.39 1.11 4.41zm-15.84 83.56h31.46v95.41h-31.46v-95.41zm-24.42-16.2h-55.43v-47.58h55.43v47.58zm80.47-47.65h55.26v47.57h-55.26v-47.57zm-16.69 47.64h-47.32v-47.58h47.32v47.58z"/></g></svg>