<svg id="_레이어_2" xmlns="http://www.w3.org/2000/svg" viewBox="0 0 371.26 311.56"><defs><style>.cls-1{fill:#fff}</style></defs><g id="_레이어_1-2"><path class="cls-1" d="M84.04 149.78h37.68c1.12 0 2.25.03 3.37-.01 4.03-.15 6.66-2.62 6.57-6.12-.09-3.38-2.61-5.77-6.48-5.82-7.48-.08-14.97-.03-22.46-.03H84.08v-23.96h3.84c12.23 0 24.45.03 36.68-.02 4.91-.02 8.07-3.48 6.85-7.48-1.02-3.34-3.53-4.52-6.91-4.51-12.1.06-24.2.02-36.3.02h-4.25V59.91h3.44c56.39 0 112.78-.04 169.16.02 23.29.03 42.04 17.65 42.73 39.91.02.5 0 .99 0 2h-4.07c-12.1 0-24.2-.02-36.3 0-4.72 0-7.45 2.24-7.45 5.99 0 3.73 2.74 5.97 7.46 5.98 11.98.02 23.95 0 35.93 0h4.27v23.96h-18.38c-7.36 0-14.72-.03-22.08.01-4.48.02-7.12 2.22-7.2 5.86-.08 3.75 2.67 6.09 7.34 6.1 13.34.03 26.67 0 40.28 0v23.96h-3.99c-12.1 0-24.2-.02-36.3 0-4.65.01-7.41 2.36-7.33 6.11.08 3.63 2.73 5.84 7.21 5.85 12.1.03 24.2.01 36.3.01h4.19v23.96h-3.95c-12.1 0-24.2-.02-36.3 0-4.72 0-7.45 2.24-7.45 5.98s2.74 5.97 7.46 5.98c11.98.02 23.95 0 35.93 0h4.39c.01 8.88-2.41 16.7-7.32 23.67-8.6 12.19-20.52 18.24-35.39 18.25-56.39.04-112.78.02-169.16.02h-3.45V221.6h3.92c12.1 0 24.2.02 36.3 0 4.71 0 7.47-2.25 7.47-5.98 0-3.74-2.74-5.98-7.45-5.99-11.98-.02-23.95 0-35.93 0H84v-23.96h17.25c7.73 0 15.47.03 23.2-.01 4.44-.02 7.13-2.26 7.21-5.86.08-3.74-2.69-6.09-7.34-6.1-13.34-.03-26.67 0-40.27 0v-23.96zm94.72 26.96c-1.66 12.36-3.23 24.33-4.9 36.28-.49 3.52-.11 6.53 3.54 8.13 2.99 1.32 5.52.23 8.09-3.46 15.32-22 30.61-44.02 45.94-66.02 1.65-2.37 2.88-4.73 1.36-7.6-1.5-2.82-4.05-3.33-6.98-3.3-7.34.07-14.68.02-22.4.02 2.89-10.18 5.71-19.98 8.45-29.79 1.68-5.99-.71-9.12-6.93-9.14-9.85-.03-19.71-.02-29.56 0-5.06 0-6.52 1.09-7.95 6.06-5.68 19.75-11.34 39.5-16.97 59.27-1.85 6.5.45 9.53 7.16 9.54 6.96.02 13.93 0 21.16 0zM0 203.69v-11.98h4c12.1 0 24.2.01 36.3 0 4.73 0 7.47-2.22 7.51-5.94.03-3.75-2.71-6.02-7.41-6.02-13.33-.02-26.66 0-40.23 0v-11.98h13.07c9.23 0 18.46.03 27.69-.02 4.16-.02 6.77-2.32 6.87-5.81.1-3.64-2.59-6.12-6.92-6.13-13.46-.04-26.93-.02-40.68-.02v-11.98h38.73c6.03 0 8.93-2 8.86-6.09-.07-3.99-2.86-5.89-8.68-5.89h-39v-11.98h3.91c12.1 0 24.2.01 36.3 0 4.72 0 7.47-2.24 7.48-5.97.01-3.74-2.73-5.99-7.44-6-13.33-.02-26.65 0-40.21 0V95.9h13.48c9.11 0 18.21.04 27.32-.02 4.16-.03 6.76-2.34 6.85-5.84.09-3.64-2.61-6.09-6.95-6.11-11.98-.04-23.95-.02-35.93-.02H.85c1.64-12.02 12.32-22.75 25.4-23.55 15-.92 30.1-.21 45.35-.21v203.21c-.86.09-1.8.26-2.75.27-13.1.02-26.2.11-39.29-.02-13.39-.13-24.98-9.12-28.5-21.84-.16-.58-.19-1.2-.33-2.09h36.8c1.37 0 2.75.06 4.12-.02 3.74-.22 6.26-2.78 6.15-6.16-.11-3.25-2.55-5.71-6.15-5.75-8.11-.11-16.22-.04-24.32-.04H.22v-11.98h3.9c12.1 0 24.2.02 36.3 0 4.67-.01 7.44-2.33 7.39-6.06-.05-3.72-2.78-5.9-7.53-5.91-11.98-.02-23.95 0-35.93 0H0zm47.87 71.96h203.61V283c0 7.11.03 14.22-.01 21.34-.03 4.93-2.18 7.12-7.03 7.18-4.24.06-8.48-.05-12.72.03-2.91.06-4.99-1.14-6.56-3.53-2.66-4.07-5.25-8.2-8.16-12.09-.87-1.16-2.7-2.27-4.09-2.27-42.17-.12-84.33-.12-126.5 0-1.39 0-3.22 1.11-4.09 2.27-2.84 3.78-5.38 7.79-7.94 11.78-1.7 2.65-3.93 3.96-7.15 3.86-4.36-.14-8.73.05-13.1-.07-3.66-.1-6.15-2.21-6.2-5.66-.15-9.95-.05-19.9-.05-30.18zM209.56 23.97c-11.48 0-22.96.02-34.44 0-5.38-.01-7.44-2.1-7.48-7.48-.03-3.37-.08-6.74.02-10.11.13-3.99 2.34-6.32 6.33-6.33 23.71-.06 47.42-.06 71.12 0 3.99.01 6.21 2.33 6.34 6.32.11 3.49.07 6.99.02 10.48-.07 4.9-2.21 7.09-7.1 7.11-11.6.04-23.21.01-34.81.01zm125.96 155.74v-35.78c6.87 0 13.6-.5 20.22.12 9.36.88 16.02 9.43 15.49 18.82-.51 9.12-8.06 16.55-17.33 16.81-6.06.17-12.13.03-18.39.03zm-24.02 17.86v-71.29c5.86-1.23 11.79 5.22 11.81 10.71.06 16.47.15 32.95-.04 49.42-.07 6.21-4.87 10.55-11.77 11.15zM179.84 36.02h59.36v11.66h-59.36V36.02z"/><path class="cls-1" d="M189.1 190.05c.74-5.52 1.43-11.06 2.22-16.57.86-5.99-1.4-8.7-7.45-8.72-6.59-.02-13.18 0-20.26 0l14.5-50.77h20.44c-2.71 9.55-5.35 18.86-7.99 28.17-.27.96-.58 1.91-.8 2.88-.96 4.33 1.56 7.62 6.15 7.71 6.44.12 12.88.03 20.14.03-8.95 12.89-17.5 25.18-26.04 37.48-.3-.06-.61-.13-.91-.19z"/></g></svg>