<svg id="_레이어_2" xmlns="http://www.w3.org/2000/svg" viewBox="0 0 299.53 335.46"><defs><style>.cls-1{fill:#fff}</style></defs><g id="_레이어_1-2"><path class="cls-1" d="M215.77 167.75c45.61-.09 83.68 37.51 83.75 82.72.08 47.6-37.06 84.97-84.47 84.99-45.36.02-83.09-37.73-83.21-83.26-.12-46.7 37.3-84.36 83.93-84.45zm-1.98 155.74h.94c4.15-.06 6.79-2.25 6.92-5.75.14-3.62-2.52-6.05-6.85-6.22-21.48-.84-38.18-10.25-49.88-28.25-6.11-9.4-8.98-19.91-9.12-31.14-.04-3.27-1.55-5.57-4.74-6.31-2.86-.67-5.25.46-6.48 3.16-.59 1.29-.72 2.89-.71 4.34.23 37.07 31.79 69.14 69.92 70.16zm19.96-107.82c9.73 0 17.81-8.08 17.86-17.86.05-9.93-8.1-18.09-18.04-18.05-9.78.04-17.81 8.07-17.86 17.85-.05 9.94 8.07 18.06 18.03 18.06zm-30.05-5.86c.05-9.79-7.89-17.92-17.65-18.06-9.97-.14-18.19 7.9-18.25 17.84-.06 9.93 8.07 18.08 18.02 18.07 9.74 0 17.82-8.07 17.88-17.85zm35.94 36.17c.09-9.76-7.85-17.87-17.67-18.06-9.78-.19-18.09 7.76-18.25 17.46-.17 9.94 7.9 18.18 17.85 18.23 9.84.05 17.98-7.89 18.07-17.62zm-143.52 5.65c-1.14 15.05-2.34 30.09-3.36 45.14-.24 3.53-1.64 5.15-5.23 5.86-11.97 2.36-23.89 5.04-35.79 7.74-2.25.51-3.74.32-5.01-1.81-17.93-30.08-33.68-61.13-42.38-95.29-3.68-14.46-6.07-29.13-2.76-44.02.99-4.46 2.87-8.74 4.58-13 .36-.9 1.69-1.76 2.72-1.99 17.87-4.01 35.75-7.95 53.66-11.75 1.19-.25 2.9.38 3.91 1.18 10.62 8.37 16.37 19.88 20.39 32.42 5.14 16.03 7.34 32.58 8.17 49.31.43 8.71.08 17.46.08 26.19l1.04.03z"/><path class="cls-1" d="M119.91 245.48h-12.74c0-5.87.23-11.68-.04-17.47-.96-20.48-3.17-40.82-10.57-60.11-2.87-7.49-7.29-14.37-10.97-21.55-.61-1.18-1.44-2.44-1.49-3.69-.5-12.12.06-24.17 3.09-36.01 2.01-7.86 5.72-14.86 10.73-21.16.7-.88 2.23-1.54 3.38-1.55 18.2-.1 36.41-.11 54.61.03 1.29 0 2.93 1.05 3.79 2.11 9.42 11.55 12.77 25.36 13.11 39.74.3 12.55-.9 25.13-1.42 37.69-.1 2.44-1.28 3.88-3.46 5.19-27.66 16.6-43.54 40.92-47.43 73-.15 1.22-.37 2.44-.57 3.78zm136.94-80.51c-23.96-10.75-48-12.1-72.95-3.82.19-3.01.47-5.66.52-8.32.19-9.71.21-19.43.53-29.14.06-1.76.93-3.66 1.91-5.17.92-1.42 2.63-2.29 3.75-3.62 1.6-1.89 3.37-2.05 5.66-1.54 16.64 3.71 33.29 7.42 49.99 10.88 3.41.71 5.17 2.14 6.58 5.39 4.89 11.25 5.55 22.85 4.02 35.33zM147.58 35.81h-37.45c0-7.43-.8-14.82.21-21.96C111.53 5.43 121.63-.85 130.4.09c9.61 1.04 17.08 8.85 17.16 18.04.05 5.82.01 11.64.01 17.68zM44.04 97.42c-12.52 2.74-24.54 5.36-37.2 8.13-1.38-7.17-3.37-14.14-3.91-21.23-.66-8.73 7.44-17.06 16.55-18.29 9.1-1.23 18.49 4.8 20.65 13.47 1.43 5.77 2.55 11.62 3.91 17.92zm206.73-21.15c-12.55-2.74-24.57-5.36-37.3-8.14 1.8-7.25 2.89-14.55 5.47-21.27 3.04-7.89 13.7-11.89 22.16-9.38 8.73 2.59 14.86 11.22 13.57 19.84-.93 6.25-2.53 12.4-3.91 18.95zm-195.2 55.41c-14.76 3.23-29.78 6.52-45.29 9.91v-24.53c11.8-2.57 23.91-5.21 35.63-7.77 3.3 7.65 6.43 14.91 9.66 22.39zm156.21-51.64c11.7 2.55 23.8 5.19 35.63 7.77v24.5c-15.35-3.34-30.44-6.63-45.28-9.86 3.21-7.45 6.34-14.72 9.65-22.41zM110.3 48.14h36.57c1.55 7.86 3.07 15.61 4.63 23.53h-45.83c1.52-7.74 3.04-15.5 4.62-23.53zm129.32 149.7c-.08 3.24-2.87 5.9-6.1 5.82-3.26-.08-5.9-2.85-5.82-6.1.08-3.26 2.85-5.9 6.09-5.82 3.25.09 5.91 2.87 5.83 6.09zm-54.01 17.8c-3.26-.08-5.9-2.84-5.82-6.09.08-3.26 2.84-5.91 6.08-5.83 3.25.08 5.91 2.86 5.84 6.09-.07 3.23-2.87 5.9-6.09 5.83zm36.19 35.95c-3.26.07-6.04-2.59-6.07-5.81-.03-3.17 2.78-5.9 6.03-5.86 3.09.03 5.77 2.6 5.88 5.64.12 3.2-2.55 5.96-5.84 6.03z"/></g></svg>