<svg id="_레이어_2" xmlns="http://www.w3.org/2000/svg" viewBox="0 0 346.96 335.36"><defs><style>.cls-1{fill:#fff}</style></defs><g id="_레이어_1-2"><path class="cls-1" d="M113.06 17.96c19.98.2 38.43 4.2 54.29 16.15 22.75 17.14 31.75 40.68 29.72 68.49-2.9 39.59-31.9 66.69-72.04 70.48-17.69 1.67-34.92.07-51.17-7.39-27.33-12.55-41.72-34.48-43.81-64.09-1.83-25.99 6.46-48.47 27.02-65.37 16.34-13.43 35.75-18.01 55.99-18.27zm6.56 124.92c0-5.7-.08-11.42.08-17.13.02-.86.98-1.89 1.77-2.49 3.48-2.63 7.16-5 10.57-7.7 5.09-4.03 6.78-10.5 4.58-16.49-2.1-5.71-7.14-9.15-13.61-9.2-6.11-.04-12.22-.03-18.32 0-7.18.03-12.24 3.5-14.3 9.77-2.07 6.3.07 12.56 5.79 16.75 3.21 2.36 6.51 4.6 9.71 6.98.72.53 1.64 1.43 1.65 2.17.14 5.8.08 11.61.08 17.78-2.36-.44-4.23-.6-5.98-1.15-12.91-4.1-23.03-10.78-24.06-25.98-.22-3.3-3.06-5.48-6.14-5.35-3.26.13-5.64 2.61-5.69 6.19-.09 7.24 2.36 13.68 6.6 19.46 16.31 22.26 53.8 25.87 75.71 7.25 8.05-6.84 12.99-15.36 13.42-26.11.16-4-2.37-6.73-5.89-6.78-3.4-.05-5.69 2.31-6.05 6.24-1.28 13.9-15.29 26.11-29.92 25.79zM77.65 77.91a5.95 5.95 0 00-5.92 5.88c-.05 3.4 2.75 6.16 6.13 6.04 3.2-.11 5.85-2.89 5.78-6.07-.06-3.19-2.81-5.87-6-5.85zm77.86 6.05c.05-3.19-2.6-5.95-5.8-6.05-3.24-.1-5.97 2.44-6.11 5.69-.15 3.4 2.55 6.23 5.94 6.23 3.19 0 5.92-2.69 5.98-5.88zm12.03 155.95c-31.65 5.25-52.66 43.78-36.67 78.95-8.73 6.04-25.2 6.07-34.7-.12 7.03-15.97 7.68-32.31.75-48.46-6.96-16.24-19-26.84-36.94-30.36.47-11.02 2.6-21.55 6.46-31.74 3.39-8.94 8.11-17.07 14.4-24.3 1.39-1.59 2.65-2.02 4.83-1.5 18.62 4.46 37.29 4.5 55.9-.04 2.41-.59 3.66.14 5.09 1.78 10.87 12.52 16.7 27.29 19.38 43.44.67 4.02.99 8.09 1.5 12.34z"/><path class="cls-1" d="M17.82 292.64c.31-10.91 3.62-21.4 11.72-29.99 14.75-15.65 37.11-14.6 50.5 2.28 12.39 15.61 12.91 39.34 1.21 55.51-15.44 21.35-44.25 19.43-57.41-3.84-4.08-7.21-5.93-15-6.02-23.96zm191.69 1.28c-.36 12.16-4.2 23.32-13.48 32.18-12.93 12.34-31.86 12.34-44.87.1-18.05-16.97-18.03-48.56.04-65.5 14.46-13.56 35.72-11.83 48.44 4 6.75 8.39 9.66 18.13 9.88 29.22zM69.22 177.61c-4.25 7.82-9.15 15.75-12.99 24.17-4.94 10.84-7.22 22.5-8.02 34.38-.18 2.74-.88 4-3.87 4.61-9.44 1.93-17.31 6.86-23.73 13.99-1.59 1.77-2.91 2.14-5.11 1.32-9.91-3.7-16.23-13.5-15.43-23.99 2.32-30.71 16.99-53.28 44.26-67.69 2.27-1.2 3.56-.79 5.56.6 6.51 4.52 13.26 8.68 19.33 12.61zm88.28.49c7.21-4.81 14.3-9.59 21.49-14.22.69-.44 2.15-.26 2.98.17 26.65 13.71 42.05 35.24 44.77 65.29 1.2 13.19-3.89 22.07-14.22 26.42-2.45 1.03-4.09 1-6.09-1.25-6.28-7.08-14.15-11.85-23.46-13.74-2.99-.61-3.66-1.89-3.87-4.61-1.31-17.4-5.93-33.82-15.2-48.74-2.08-3.35-4.46-6.52-6.4-9.32zm118.02 55.63h71.44v71.5h-71.44v-71.5zm35.62 59.73c5.74 0 11.47.07 17.21-.02 5.75-.09 8.37-4.23 5.83-9.4-5.65-11.52-11.31-23.03-17.32-34.37-.98-1.84-3.73-3.81-5.65-3.79-1.92.02-4.62 2.03-5.6 3.89-5.94 11.22-11.53 22.63-17.14 34.03-2.71 5.51-.05 9.6 6.2 9.65 5.49.05 10.97.01 16.46 0zm-77.72-143.55h71.66v71.39h-67.14c-.9-8.6-5.05-16.67-4.67-25.93.56-13.69.15-27.42.15-41.13v-4.33zm59.87 35.8c.02-13.23-10.77-24.02-24-23.98-13.23.04-23.94 10.84-23.89 24.1.04 13.04 10.77 23.75 23.81 23.8 13.25.04 24.05-10.68 24.07-23.91zM200.52 55.66c-9.07-18.28-22.84-31.49-40.95-40.17 5-10.21 17.55-16.75 29.08-15.29 13.06 1.66 23.51 11.07 26.02 23.43 2.61 12.81-2.73 25.17-14.15 32.03zM67.64 15.51c-18.29 8.77-31.99 22.04-40.95 40.05-10.61-5.81-16.62-18.54-14.49-30.24C14.67 11.79 24.28 2.44 37.93.31c11.5-1.8 24.2 4.56 29.71 15.2zm170.03 230.06c.7-4.1 1.32-7.77 1.99-11.73h23.43v71.38h-42.58c.38-3.83.75-7.53 1.17-11.75h18.85c1.5 0 3 .05 4.49-.02 3.97-.19 6.3-2.37 6.33-6.35.09-11.73.09-23.45 0-35.18-.03-3.98-2.35-6.18-6.33-6.34-2.36-.09-4.72-.02-7.35-.02zm31.68-151.25c10.24 14.63 20.11 28.72 30.28 43.26H239.1c10.09-14.42 19.95-28.52 30.26-43.26z"/><path class="cls-1" d="M220.48 281.24c-1.55-4.59-3.06-9.04-4.4-13 4.55-3.4 8.83-7.24 13.72-9.97 2.43-1.36 5.98-.69 9.33-.97v23.94h-18.65zm-106.89-179.4c2.99 0 5.99-.11 8.97.07.95.06 2.48.74 2.62 1.38.21.97-.25 2.55-1 3.16-2.9 2.35-5.96 4.51-9.1 6.52-.71.46-2.22.47-2.93.01-3.04-1.94-6.02-4.01-8.8-6.31-.85-.7-1.44-2.31-1.31-3.4.07-.59 1.89-1.3 2.96-1.38 2.85-.19 5.73-.07 8.59-.06zm189.55 179.37c2.73-5.43 5.25-10.46 8.13-16.2 2.89 5.75 5.41 10.78 8.13 16.2h-16.26zm-33.86-83.57c-6.49-.04-11.88-5.45-11.89-11.95 0-6.69 5.52-12.11 12.22-11.98 6.49.13 11.8 5.62 11.71 12.13-.09 6.5-5.53 11.84-12.03 11.8z"/></g></svg>