<svg id="_레이어_2" xmlns="http://www.w3.org/2000/svg" viewBox="0 0 512 512"><defs><style>.cls-1{fill:#fff}</style></defs><g id="_레이어_1-2"><path class="cls-1" d="M281 0h10c.6.25 1.19.61 1.82.72 19.54 3.38 34.83 18.34 37.33 36.57 2.97 21.61-6.54 39.63-25.87 48.6-2.5 1.16-3.49 2.43-3.36 5.19.13 2.75.13 4.82 3.27 6.33 14.24 6.85 28.28 14.1 42.47 21.05 1.99.97 4.42 1.45 6.65 1.47 13.82.18 27.69-.5 41.47.35 35.53 2.19 63.24 18.5 83.49 47.77 15.13 21.87 17.12 47.44 21.27 72.71h-63.6v-29.4H406V512H296c.19-.63.32-1.29.56-1.9 7.98-20.08 5.35-38.49-8.88-54.92-2.34-2.7-1.87-4.32.29-6.65 8.15-8.77 12.3-19.35 12.89-31.19 1.5-30.35-22.28-55.14-53.07-55.32-25.33-.15-50.66-.03-75.98-.03h-5.89V211.37h-30.07v29.4H73.21c2.31-13.07 4.28-25.89 6.87-38.58 8.57-41.99 46.48-76.91 89.05-81.02 16.36-1.58 32.94-.78 49.42-1.23 2.39-.06 4.97-.61 7.11-1.65 13.91-6.77 27.67-13.86 41.62-20.57 3.1-1.49 3.85-3.34 3.79-6.53-.19-10.27-.07-20.54-.07-31.24 5.72 0 10.87.25 15.99-.06 7.77-.47 13.71-6.79 13.97-14.38.25-7.36-5.12-13.94-12.48-15.28-7.21-1.31-14.3 3.1-16.68 10.39-.45 1.38-.79 2.79-1.14 4.01h-29.57c.65-14.26 6.07-25.69 16.87-34.62C264.73 4.42 272.72 1.95 281 0zm-38.99 143.76c6.05 23.25 25.41 37.9 46.87 36.06 20.9-1.79 38.95-17.8 40.65-36.29-13.73-6.85-27.53-13.77-41.38-20.59-1.04-.51-2.69-.76-3.65-.29-14.15 6.93-28.23 14-42.49 21.11z"/><path class="cls-1" d="M0 410c3.17-8.5 8.08-15.28 17.58-17.3 2.26-.48 4.62-.67 6.93-.67 74-.03 147.99-.04 221.99-.02 11.46 0 19.69 5.39 23.1 14.9 3.28 9.15.75 19.49-7.35 24.98-4.04 2.74-9.45 4.87-14.25 4.89-74.99.3-149.99.25-224.99.17-12.15-.01-19.08-7.17-23.01-17.96v-9zm0 75c3.11-8.29 7.83-15 17.07-17.18 1.61-.38 3.27-.75 4.91-.75 75.6-.04 151.2-.09 226.8.03 8.83.01 15.62 4.37 19.67 12.34 3.87 7.61 3.2 15.1-1.2 22.34-3.3 5.44-8.76 7.86-14.27 10.22H18c-9.03-2.97-15.03-8.97-18-18v-9zm512-154h-75.69v-59.75h68.4c1.43 11.72 2.81 23.4 4.31 35.07.89 6.91 1.98 13.79 2.98 20.68v4zm-376.19-59.59v59.3H61.05c2.39-19.75 4.77-39.33 7.19-59.3h67.57z"/></g></svg>