<svg id="_레이어_2" xmlns="http://www.w3.org/2000/svg" viewBox="0 0 374.47 408.85"><defs><style>.cls-1{fill:#fff}</style></defs><g id="_레이어_1-2"><path class="cls-1" d="M75.54 408.85c-8.46-.78-16.95-1.31-25.37-2.39-14.38-1.84-28.62-4.37-41.98-10.44-5.34-2.43-8.39-5.49-8.18-12.32.58-19.27.2-38.57.2-57.86v-4.86c28.64 12.96 58.8 14.97 89.09 14.96 30.33-.01 60.56-1.95 89.24-15.04v6.63c0 19.55-.08 39.11.08 58.66.03 3.5-.93 6.13-4.05 7.44-6.7 2.83-13.34 5.96-20.3 7.93-15.41 4.35-31.3 5.96-47.27 6.72-1.17.06-2.34.36-3.5.55H75.55zm298.66-30.2H254.49c-.11-1.22-.28-2.24-.28-3.27.05-39.37-.42-78.75.41-118.1.39-18.76 10.39-33.1 26.23-43.16 1.03-.65 2.49-.84 3.76-.85 19.82-.05 39.64-.07 59.45.03 1.59 0 3.39.64 4.74 1.53 16.78 11.11 25.43 26.86 25.54 46.91.21 38.17.07 76.35.06 114.52 0 .65-.11 1.29-.21 2.38zm-60.04-100.14c-12.59.08-22.86 10.44-22.73 22.92.14 12.56 10.54 22.84 23.01 22.73 12.48-.11 22.92-10.66 22.76-23.02-.16-12.59-10.47-22.71-23.04-22.63z"/><path class="cls-1" d="M237.51 348.82h-47.66v-4.25c0-11.97-.33-23.96.11-35.91.3-8.24-3.12-14.27-9.99-17.6-8.18-3.97-16.77-7.5-25.56-9.71-10.26-2.58-20.93-3.53-31.42-5.19-1.68-.27-3.37-.53-5.23-.82V174.39H237.5v174.43zm-119.6-186.37c-.14-.87-.34-1.51-.33-2.15.09-19.15-.61-38.35.53-57.43 1.09-18.25 10.79-32.17 26.27-41.9 1.13-.71 2.77-.83 4.18-.83 19.42-.05 38.84-.27 58.25.19 3.4.08 7.19 2.48 10.03 4.76 13.39 10.75 20.57 24.88 20.85 42.1.29 17.68.1 35.38.11 53.06 0 .65-.16 1.29-.27 2.19H117.91z"/><path class="cls-1" d="M89.35 285.85c21.98.22 43.85 1.57 65.2 7.27 5.86 1.56 11.61 3.78 17.14 6.29 2.58 1.17 4.51 3.78 6.74 5.74-2.27 2.07-4.23 4.81-6.89 6.06-5.38 2.51-11.03 4.66-16.77 6.16-22.8 5.98-46.11 7.4-69.56 7.16-20.11-.21-40.15-1.54-59.62-6.85-7.72-2.1-15.17-5.47-22.39-8.99-4.18-2.04-4.12-4.86.12-6.97 6.72-3.34 13.66-6.56 20.86-8.54 21.29-5.87 43.2-7.1 65.18-7.32zm115.9-237.27h-55.57V23.8c0-4.52-.09-9.04.05-13.56.18-5.71 4.44-10.08 10.19-10.14 11.83-.14 23.66-.13 35.49 0 5.57.06 10.13 4.32 10.21 9.71.18 12.49.07 24.99.05 37.49 0 .47-.31.94-.44 1.29zm136.82 153.14h-55.59c0-12-.46-23.8.17-35.55.38-7.21 7.13-12.67 14.51-12.86 8.76-.23 17.54-.22 26.3 0 7.2.18 14.04 5.51 14.43 12.47.66 11.88.18 23.81.18 35.94z"/></g></svg>