<svg id="_레이어_2" xmlns="http://www.w3.org/2000/svg" viewBox="0 0 383.26 383.26"><defs><style>.cls-1{fill:#fff}</style></defs><g id="_레이어_1-2"><path class="cls-1" d="M0 29.2c1.2-3.51 1.99-7.24 3.67-10.5C9.8 6.84 19.74.62 33.06.06 39.5-.21 44.53 4.48 44.88 10.6c.37 6.24-4.31 11.3-10.93 11.86-7.45.62-11.55 4.94-11.47 12.45.13 12.34-.54 24.78.83 36.99 3.05 27.19 27.67 47.94 55.47 47.87 27.61-.07 52.16-20.84 55.08-47.86 1.4-12.96.84-26.15.73-39.23-.05-5.88-4.79-9.67-11.34-10.22-8.3-.69-13.3-8.56-9.92-15.8 2.09-4.5 5.81-6.66 10.79-6.64 17.31.08 32.66 14.45 32.91 31.89.39 26.94.71 53.91-.07 80.83-1.04 35.61-28.45 66.45-63.55 72.96-1.1.2-2.18.48-3.59.79V347.4c0 9.22 4.23 13.41 13.53 13.41h154.2c9.21 0 13.4-4.24 13.42-13.52 0-3.49.04-6.98.06-10.48l-.11.1h22.56l-.11-.1c-.11 5.85.39 11.78-.45 17.52-2.2 15.05-12.24 25.14-27.33 28.36-.47.1-.9.38-1.36.57H96.56c-.21-.13-.41-.32-.64-.38-19.65-5.12-28.55-16.59-28.55-36.8V186.57c-1.26-.32-2.32-.6-3.39-.85-32.42-7.35-53.06-27.04-61.81-59.12-.94-3.46-1.46-7.04-2.17-10.57V29.2zm24.03 91.34c4.43 25.83 30 45.25 57.5 44.09 24.69-1.04 49.53-22.21 51.43-43.83-31.34 29.36-79.2 27.72-108.93-.26z"/><path class="cls-1" d="M271.03 336.8c-18.96.01-37.91.2-56.87-.02-18.1-.21-32.88-14.9-32.94-33-.17-48.14-.07-96.28-.06-144.42 0-.6.08-1.19.13-1.97h201.96v3.84c0 46.64.01 93.29 0 139.93 0 21.36-14.3 35.67-35.63 35.68-18.08 0-36.17-.03-54.25-.05l.11.1c-.02-9.23.08-18.46-.12-27.68-.06-2.94.68-4.5 3.55-5.85 14.2-6.71 21.57-22.37 18.11-37.73-3.37-14.96-17.04-25.95-32.45-26.09-15.61-.14-29.46 10.63-33.11 25.73-3.75 15.52 3.77 31.37 18.35 38.28 2.31 1.09 3.29 2.23 3.23 4.91-.21 9.47-.11 18.95-.13 28.43l.11-.1zm11.49-149.66c-12.08 0-24.17-.01-36.25 0-7.57.01-12.69 4.53-12.71 11.18-.02 6.66 5.09 11.26 12.63 11.27 24.04.02 48.08.02 72.12 0 7.49 0 12.61-4.7 12.53-11.37-.09-6.53-5.14-11.06-12.45-11.07-11.96-.03-23.92 0-35.88 0zm100.73-52.58h-202.1v-3.82c0-31.67-.01-63.34 0-95.01.01-21.39 14.27-35.71 35.59-35.72 43.64-.02 87.28-.02 130.92 0 21.34 0 35.58 14.29 35.59 35.71.02 31.67 0 63.34 0 95.01v3.82zM270.97 56.15c-3.75 0-6.98-.02-10.21 0-7.2.06-12.29 4.77-12.24 11.3.05 6.53 5.12 11.09 12.4 11.14 3.31.02 6.61 0 10.04 0 0 3.95-.04 7.31 0 10.67.1 6.72 4.76 11.66 11.02 11.77 6.41.12 11.3-4.89 11.41-11.75.06-3.45.01-6.91.01-10.69 3.72 0 7.06.03 10.4 0 6.99-.08 11.98-4.71 12.04-11.13.06-6.55-5.01-11.26-12.22-11.32-3.32-.03-6.64 0-10.22 0 0-3.93.06-7.4-.01-10.87-.14-6.65-4.94-11.57-11.21-11.58-6.27 0-11.09 4.93-11.22 11.57-.07 3.47-.01 6.94-.01 10.88z"/><path class="cls-1" d="M282.19 262.01c6.06 0 11.17 5.05 11.22 11.11.06 6.22-5.18 11.42-11.39 11.32-6.06-.1-11.08-5.24-11.04-11.3.04-6.06 5.14-11.13 11.2-11.13z"/></g></svg>