<svg id="_레이어_2" xmlns="http://www.w3.org/2000/svg" viewBox="0 0 348.13 383.31"><defs><style>.cls-1{fill:#fff}</style></defs><g id="_레이어_1-2"><path class="cls-1" d="M71.06 383.31c-6.03-1.44-12.3-2.25-18.07-4.42-31.44-11.81-50-34.6-52.62-68-2.63-33.45 12.34-58.69 41.51-75.32 2.08-1.18 3.01-2.3 3-4.82-.11-26.07-.08-52.15-.04-78.22 0-2.01-.33-3.31-2.38-4.43C3.44 126.76-10.58 83.6 8.36 43.41c1.96-4.16 4.05-8.25 6.1-12.43 15.91 15.96 31.75 31.84 47.42 47.55 5.55-5.57 10.71-10.76 16.09-16.15C62.35 46.8 46.49 30.99 30.46 15.01 46.38 6.42 62.16-.34 80.31.01c38.82.77 72.28 31.31 76.2 69.98 3.29 32.48-12.78 62.71-41.59 77.88-2.31 1.22-2.79 2.59-2.78 4.92.07 25.82.09 51.65-.02 77.47-.01 2.71.78 4.07 3.2 5.45 27.65 15.72 41.62 39.58 41.67 71.39.01 8.79-1.92 17.36-5.3 25.48-2.77 6.65-5.98 13.1-9.07 19.82-16.03-16.06-31.84-31.91-47.46-47.56-5.67 5.7-10.83 10.88-16.38 16.46 15.59 15.5 31.48 31.29 47.55 47.27-12.56 6.24-24.63 12.71-38.58 14.12-.58.06-1.14.4-1.71.62H71.07zm141.47 0c-10.65-18.57-21.3-37.14-31.97-55.71-3.91-6.8-7.76-13.64-11.8-20.36-1.12-1.87-1.06-3.22.02-5.08 14.19-24.45 28.31-48.93 42.37-73.45 1.14-1.99 2.41-2.66 4.7-2.65 28.17.09 56.34.1 84.52-.02 2.56-.01 3.71.99 4.86 3 13.89 24.19 27.82 48.35 41.86 72.46 1.36 2.33 1.42 4 .04 6.37-13.92 23.88-27.72 47.84-41.53 71.78-.67 1.17-1.17 2.44-1.74 3.66h-91.32zm11.94-78.51c.03 18.46 15.1 33.55 33.54 33.59 18.58.04 33.84-15.21 33.79-33.77-.05-18.43-15.17-33.54-33.6-33.58-18.63-.04-33.77 15.11-33.74 33.76zM179.71 67.15V.26h156.84v66.89H179.71zm44.87 45.24V90.14h67.25v22.24l.11-.1h-67.47l.11.11zm0 44.91v-22.56l-.11.11h67.47l-.11-.1v22.55l.11-.1h-67.47l.11.11zm67.25 22.36v22.24h-67.25v-22.25l-.11.11h67.47l-.11-.1zm-67.25-44.92h-22.29v-22.35h22.29l-.11-.11v22.56l.11-.11z"/><path class="cls-1" d="M291.83 112.38h22.2v22.36h-22.2l.11.1v-22.56l-.11.1zm-67.25 67.27h-22.29V157.3h22.29l-.11-.11v22.56l.11-.11zm67.25-22.35h22.2v22.36h-22.2l.11.1V157.2l-.11.1z"/></g></svg>