<svg id="_레이어_2" xmlns="http://www.w3.org/2000/svg" viewBox="0 0 276.27 335.8"><defs><style>.cls-1{fill:#fff}</style></defs><g id="_레이어_1-2"><path class="cls-1" d="M.32 137.86h143.47c0 6.36.07 12.56-.09 18.76-.02.8-1.09 1.85-1.94 2.31-3.61 1.96-7.31 3.77-10.99 5.59-7.33 3.61-10.98 9.45-10.93 17.64.04 7.11.23 14.23-.07 21.33-.22 5.16.59 9.92 3.46 14.22 1.68 2.52 2.02 4.92.11 7.49-4.73 6.37-3.47 13.76-3.38 20.92.01 1.16.74 2.35 1.26 3.47 1.14 2.46 2.36 4.89 3.71 7.67H.32v-119.4zm23.43 89.52v-53.44H12.24v53.44h11.51zm-11.4-77.63v11.65h11.38v-11.65H12.35zm215.48-18.13v12.02h46.88c.35 4.04.68 7.8 1.04 11.87h-47.8v12.03h47.4v11.9H227.9v12.08h45.16c-.94 3.37-1.9 6.31-2.56 9.32-1.75 8.01-.87 15.82 1.67 23.58 1.56 4.77 2.66 9.68 4.1 15.03h-48.35v12.02h47.46v11.9h-47.51v11.9h47.43v12.03h-47.35v12.03h47.45c0 8.97.37 17.55-.13 26.08-.33 5.63-5.62 9.74-11.41 9.92-4.24.14-8.49.22-12.72-.06-1.72-.11-3.65-.9-5.02-1.98-8.56-6.75-16.37-6.71-25.11.12-1.52 1.18-3.6 1.64-5.34 2.39 0-8.38-.23-16.06.08-23.72.23-5.55-.61-10.65-3.71-15.29-1.45-2.17-1.75-4.26-.1-6.48 4.79-6.45 4.12-13.97 3.52-21.24-.25-3.04-2.6-5.86-3.62-8.91-.52-1.55-.9-3.88-.11-5.01 4.64-6.69 4.46-14.21 3.75-21.62-.31-3.29-2.71-6.34-3.81-9.61-.48-1.44-.68-3.53.02-4.7 3.35-5.56 4.41-11.44 4.06-17.87-.35-6.47-.08-12.97-.08-19.46 0-7.86-3.51-13.59-10.49-17.18-3.55-1.82-7.07-3.7-10.71-5.31-2.13-.94-2.84-2.2-2.81-4.54.18-14.42 4.47-27.43 12.86-39.13 4.5-6.28 8.84-12.7 13.52-18.84 2.63-3.45 3.91-6.96 3.7-11.36-.31-6.44-.08-12.9-.08-19.53h23.96c0 6.43.22 12.87-.08 19.29-.21 4.5 1.06 8.13 3.77 11.71 5.34 7.06 10.45 14.3 15.35 21.66 2.59 3.88 4.54 8.19 7.15 12.97h-43.98z"/><path class="cls-1" d="M149.95 287.45v11.98h44.45c5.55 0 9.01 2.87 9.21 8.39.27 7.23.16 14.47 0 21.71-.08 3.49-2.51 5.79-6.08 5.8-19.84.07-39.68.08-59.51 0-3.89-.02-6.13-2.49-6.18-6.49-.08-6.74-.46-13.52.16-20.2.31-3.4 2.24-6.79 3.96-9.89 2.02-3.65 2.05-6.84.05-10.54-1.8-3.32-3.27-6.96-4.07-10.63-.95-4.37.14-8.68 2.79-12.4 3.71-5.22 3.52-10.32-.09-15.51-2.44-3.51-3.66-7.53-2.72-11.68a47.78 47.78 0 014.01-11.03c1.88-3.67 2.44-6.96.05-10.5-3.63-5.38-4.66-11.32-4.23-17.75.36-5.47.16-10.98.04-16.47-.07-3.42 1.36-5.63 4.41-7.09 4.61-2.19 9.07-4.73 13.74-6.77 4.36-1.9 6.44-4.82 5.87-9.62-.19-1.59-.03-3.23-.03-5.4 7.99 3.01 15.77 3.03 23.96.02 0 2.67.07 4.98-.02 7.29-.12 3.26 1.36 5.42 4.23 6.83 5.15 2.53 10.24 5.17 15.4 7.66 3.04 1.47 4.42 3.71 4.38 7.12-.11 7.86.27 15.74-.19 23.57-.18 3.04-1.93 6.05-3.34 8.89-.33.67-2.19.79-3.35.79-14.22.05-28.45.03-42.67.03h-4.2v11.98h44.72c5.25 0 8.57 2.9 8.93 8.31.29 4.44.44 8.88-2.17 13.01-1.24 1.97-2.37 2.71-4.65 2.69-15.47-.1-30.94-.05-46.71-.05v11.98h44.26c5.55 0 8.73 2.48 9.22 7.98.39 4.41.51 8.83-1.96 13.04-1.37 2.33-2.71 3-5.22 2.99-15.34-.1-30.68-.05-46.45-.05zm-5.97-84.11h11.52v-17.53h-11.52v17.53zm-.59-77.69H.32c-.74-7.64-.21-15.16 1.7-22.51 6.44-24.81 21.67-41.86 45.63-51.03 5.6-2.14 6.3-3.06 6.31-9.03V30.14H89.9c0 4.59-.01 9.16 0 13.73.02 4.94.97 6.26 5.65 7.95 30.6 11.1 49.59 39.34 48.23 71.76-.03.69-.26 1.38-.4 2.07zM24.24 114.37c1.46-10.7 5.78-19.9 13.05-27.89-2.96-2.82-5.71-5.43-8.59-8.18-9.22 9.99-14.66 21.22-16.15 34.73 4.05.46 7.71.88 11.69 1.33zm14.23-44.74c2.57 3.82 4.68 6.95 6.72 9.98 4.19-2.03 7.95-3.85 11.9-5.77-1.22-3.7-2.39-7.28-3.75-11.4-5.1 2.46-9.74 4.71-14.87 7.18zm81.37 200.11c0 1.57.12 2.94-.02 4.28-.65 6.04.65 11.63 3.96 16.7 1.25 1.91 1.23 3.57-.02 5.47-3.33 5.07-4.31 10.65-4 16.71.34 6.71.08 13.46.08 20.65-6.11 2.37-12.64 2.61-19.02.61-4.21-1.32-8.35-3.31-12.05-5.72-11.24-7.35-22.69-7.44-33.82.21-11.59 7.97-23.92 9.23-36.36 2.7C6.17 324.8.13 313.96.07 299.9c-.04-9.96 0-19.92 0-30.15h119.77zM54.28 0h35.33v17.64H54.28V0zm113.53 144.33c-3.26-1.04-6.62-1.64-9.5-3.15-3.44-1.8-3.29-4.79-.11-7.04 4.48-3.17 14.22-3.24 18.91-.13 3.42 2.27 3.6 5.36 0 7.24-2.78 1.46-6.01 2.03-9.3 3.08z"/></g></svg>