<svg id="_레이어_2" xmlns="http://www.w3.org/2000/svg" viewBox="0 0 383.33 383.27"><defs><style>.cls-1{fill:#fff}</style></defs><g id="_레이어_1-2"><path class="cls-1" d="M44.18 383.27c-6.29-2.56-8.41-7.48-9.11-14-2.89-26.76-6.18-53.48-9.31-80.22-3.12-26.74-6.22-53.48-9.32-80.22-.79-6.8-1.6-13.6-2.43-20.69h229.71c-.58 7.32-1.14 14.5-1.75 22.17h-65.51c-35.35.02-62.15 19.39-73.3 52.86-.42 1.27-1.5 2.58-2.63 3.32-33.06 21.74-32.37 67.29 1.34 88.02 1.1.67 2.35 1.66 2.77 2.78 3.51 9.35 8.75 17.6 15.41 24.99.24.26.34.65.5.98H44.18zM15.07 165.53c-6.96.01-12.08-1.87-15.07-8.34v-13.47c2.81-6.39 7.7-8.45 14.6-8.43 76.32.16 152.64.1 228.96.1 10.35 0 14.12 3.8 14.13 14.2 0 1.75.05 3.5-.05 5.24-.34 5.68-4.57 10.04-10.24 10.55l-232.32.16z"/><path class="cls-1" d="M168.47 383.27c-3.01-.73-6.05-1.35-9.02-2.21-9.98-2.9-18.22-8.48-24.91-16.39-.61-.73-1.09-1.57-1.88-2.73h216.83c-.97 1.33-1.6 2.34-2.38 3.23-8.35 9.55-18.71 15.49-31.3 17.43-.71.11-1.39.44-2.09.67H168.47zm63.15-270.46H25.83c6.63-27.23 21.22-48.51 44.02-64.14 30.89-21.19 75.56-26.01 114.91-2.3 3.02-7.11 6.02-14.17 9.02-21.24 2.48-5.85 4.95-11.7 7.4-17.56 2.11-5.06 5.91-7.54 11.35-7.55 14.6-.01 29.2-.06 43.79.02 6.68.04 11.63 4.86 11.7 11.11.07 6.43-4.92 11.27-11.85 11.3-11.1.06-22.21.13-33.31-.06-2.86-.05-4.09.95-5.13 3.52-4.34 10.73-8.86 21.4-13.48 32.02-.99 2.28-.76 3.63 1 5.47 12.43 12.91 20.97 28.08 25.65 45.4.19.72.38 1.45.52 2.18.09.48.11.97.19 1.83zm37.76 226.31c-.85.04-1.71.11-2.56.11-46.16 0-92.31.04-138.47-.02-17.39-.02-30.42-13.87-29.52-31.15.71-13.73 12.53-26.06 26.27-26.61 12.08-.49 24.19-.23 36.29-.24 20.46-.03 40.92.04 61.38-.06 2.52-.01 4.06.74 5.49 2.85 8.65 12.81 17.52 25.47 26.16 38.28 4.2 6.23 8.5 12.3 14.96 16.83zm82.91-80.6H129.8c.6-1.16.98-2.16 1.58-3.01 10.17-14.37 23.98-22.53 41.65-22.63 45.39-.26 90.78-.28 136.16.01 17.67.11 31.47 8.34 41.57 22.77.54.77.89 1.66 1.51 2.85zm-43.04 80.67c6.53-4.71 10.86-10.92 15.14-17.23 8.67-12.79 17.53-25.45 26.21-38.24 1.27-1.88 2.6-2.59 4.88-2.49 15.09.67 27.81 13.77 27.84 28.85.04 15.65-12.24 28.76-27.76 29.05-15.43.29-30.88.06-46.32.06zm-55.53-57.9h71.07c-.74 1.23-1.28 2.26-1.93 3.22-6.7 9.76-13.4 19.52-20.12 29.26-7.2 10.43-19.77 10.39-26.95-.07-6.63-9.66-13.25-19.32-19.87-28.98-.68-.99-1.3-2.02-2.19-3.43z"/></g></svg>