<svg id="_레이어_2" xmlns="http://www.w3.org/2000/svg" viewBox="0 0 326.16 199.6"><defs><style>.cls-1{fill:#fff}</style></defs><g id="_레이어_1-2"><path class="cls-1" d="M326.16 159.59c-1.78 2.94-3.07 6.41-5.49 8.65-2.25 2.08-5.64 3.77-8.65 4.02-7.01.58-14.11.18-20.8.18-1.05-4.87-1.59-9.65-3.13-14.09-5.93-17.01-23.02-26.89-41.09-24.13-16.82 2.57-30.01 17.27-30.88 34.64-.15 3-1.1 3.96-4.14 3.95-22.68-.11-45.35-.12-68.03 0-3.18.02-4.32-.79-4.58-4.13-1.53-19.53-15.71-33.48-35.16-34.91-18.96-1.39-36.97 13.79-38.83 32.73-.61 6.24-.61 6.31-6.86 6.21-3.06-.05-6.2 0-9.15-.7-7.57-1.77-12.23-8.38-12.31-17.14-.09-10.81-.05-21.62-.01-32.42.02-4.56 1.68-6.28 6.25-6.65.95-.08 1.91-.03 2.86-.03 18.01 0 36.03.05 54.04-.04 7.93-.04 13.72-5.34 14.68-13.06 1.27-10.15-2.51-17.45-10.39-19.66-2.1-.59-4.39-.7-6.59-.71-17.59-.05-35.18-.02-52.77-.04-1.48 0-2.98-.03-4.42-.32-2.19-.43-3.58-1.76-3.64-4.15-.02-.74-.03-1.48-.02-2.22 0-5.62.85-6.49 6.4-6.49 27.34 0 54.68.01 82.02-.01 8.46 0 14.41-4.06 15.79-11.36.67-3.55.62-7.44-.05-11-1.22-6.48-6.76-10.78-13.35-11.11-1.69-.09-3.39-.05-5.09-.05H42.98c-4.49 0-5.86-1.36-5.92-5.88-.05-3.81-.04-7.63 0-11.44.1-9.12 4.66-14.97 13.59-16.96C54.12.51 57.76.06 61.33.06 111.56-.02 161.78 0 212.01.01c11.88 0 17.51 5.61 17.62 17.52.07 6.89-.01 13.78.03 20.66.02 3.57.71 4.23 4.33 4.25 5.3.03 10.6-.11 15.89.03 11.71.31 20.4 5.72 25.79 16.1 4.05 7.79 8.04 15.63 11.62 23.64 3.15 7.06 8.41 11.2 15.67 13.17 3.27.88 6.5 1.94 9.8 2.65 7.32 1.57 10.8 6.5 12.14 13.41.44 2.26.85 4.54 1.27 6.8v41.34zm-45.52-64.34c-4.67-9.4-8.99-18.21-13.42-26.96-4.66-9.22-12.29-14-22.56-14.5-3.81-.19-7.63.06-11.44-.06-2.74-.09-3.66 1.01-3.63 3.76.12 11.23.05 22.46.05 33.69 0 4.13.39 4.53 4.53 4.54 13.99.01 27.97.02 41.96-.01 1.34 0 2.67-.26 4.5-.45z"/><path class="cls-1" d="M76.82 61.73c-15.99 0-31.98-.03-47.97.02-3.46.01-6.8-.37-8.41-3.82-1.71-3.68-1.72-7.68.04-11.36 1.58-3.3 4.82-3.81 8.13-3.81h95.95c8.65 0 13 7.05 9.13 14.82-1.61 3.24-4.49 4.17-7.94 4.16-16.31-.04-32.62-.02-48.92-.02zM281.7 170.91c.05 15.6-12.71 28.5-28.38 28.69-15.51.18-28.9-13.17-28.77-28.69.13-15.62 13.04-28.48 28.62-28.49 15.64 0 28.49 12.82 28.54 28.49zm-40.87-.04c-.05 6.99 5.41 12.49 12.39 12.46 6.79-.02 12.31-5.48 12.4-12.24.09-6.78-5.67-12.55-12.49-12.52-6.8.03-12.25 5.48-12.29 12.3zm-138.45-28.44c15.62.05 28.51 12.95 28.53 28.55.02 15.53-12.89 28.5-28.49 28.62-15.57.12-28.83-13.16-28.69-28.74.14-15.65 13.07-28.48 28.66-28.42zm12.32 28.65c.06-6.79-5.39-12.37-12.22-12.5-6.74-.13-12.39 5.34-12.56 12.16-.17 6.93 5.39 12.59 12.37 12.59 6.87 0 12.33-5.39 12.4-12.25zM53.95 108.6H10.4c-8.46 0-12.9-7.4-8.94-14.97 1.6-3.06 4.4-4.02 7.72-4.02 12.29.03 24.58.01 36.87.01 17.38 0 34.75.02 52.13-.02 3.46 0 6.79.4 8.43 3.83 1.75 3.68 1.74 7.67-.03 11.35-1.58 3.29-4.82 3.81-8.13 3.81h-44.5z"/></g></svg>