<svg version="1.2" baseProfile="tiny" xmlns="http://www.w3.org/2000/svg" width="216" height="41"><path fill="#F1F1F1" d="M194.449 41H20.551C9.219 41 0 31.805 0 20.5S9.219 0 20.551 0h173.898C205.781 0 215 9.195 215 20.5S205.781 41 194.449 41zM20.551 1C9.771 1 1 9.748 1 20.5S9.771 40 20.551 40h173.898C205.229 40 214 31.252 214 20.5S205.229 1 194.449 1H20.551z"/><path d="M26.74 27.318h-3.445l-.622-1.996H18.55l-.659 1.996h-3.446l4.877-13.408h2.542l4.876 13.408zm-4.933-4.746l-1.13-3.578-1.205 3.578h2.335zm16.627 4.746h-2.881l-4.293-6.742v6.742h-3.296V13.91h2.882l4.293 6.742V13.91h3.295v13.408zm5.724 0h-3.296V13.91h3.296v13.408zm14.933 0h-3.296v-6.422l-1.901 3.313h-2.109l-1.901-3.313v6.422h-3.296V13.91h3.239l3.013 5.914 3.013-5.914h3.239l-.001 13.408zm13.369 0h-3.445l-.622-1.996H64.27l-.659 1.996h-3.446l4.877-13.408h2.542l4.876 13.408zm-4.934-4.746l-1.13-3.578-1.205 3.578h2.335zm13.521-5.724h-3.296v10.471h-3.295V16.848H71.16V13.91h9.887v2.938zm10.921 10.47h-9.114V13.91h9.114v2.938H86.15v2.242h4.971v2.938H86.15v2.354h5.818v2.936zm17.266-6.705v.584c0 1.08-.068 1.922-.207 2.523-.188.879-.57 1.612-1.147 2.202-.979 1.007-2.229 1.509-3.748 1.509-1.506 0-2.755-.502-3.747-1.509-.628-.639-1.029-1.469-1.205-2.483-.101-.541-.15-1.482-.15-2.826 0-1.342.05-2.283.15-2.824.176-1.016.577-1.846 1.205-2.484.979-1.004 2.229-1.508 3.747-1.508 1.507 0 2.756.504 3.748 1.508.627.639 1.028 1.469 1.205 2.484.101.553.149 1.494.149 2.824zm-3.295-1.052c0-1.885-.603-2.826-1.808-2.826-.74 0-1.255.334-1.544.998-.176.453-.264 1.111-.264 1.979 0 .125-.006.363-.019.715-.013.353-.019.63-.019.828 0 2.16.614 3.24 1.845 3.24.741 0 1.256-.347 1.545-1.037.175-.438.263-1.099.263-1.978l.001-1.919zm15.856 7.757h-2.881l-4.293-6.742v6.742h-3.296V13.91h2.882l4.293 6.742V13.91h3.295v13.408zm17.889-13.408l-4.443 13.408h-2.448l-4.425-13.408h3.408l2.26 7.494 2.222-7.494h3.426zm4.557 13.408h-3.296V13.91h3.296v13.408zm11.448-4.105c0 1.355-.541 2.424-1.621 3.201-.953.678-2.141 1.018-3.559 1.018-2.246 0-3.941-.59-5.084-1.771l2.108-2.106c.641.627 1.639.94 2.993.94 1.281 0 1.922-.402 1.922-1.205 0-.654-.553-1.067-1.657-1.244-1.657-.289-2.681-.532-3.069-.733-1.104-.576-1.656-1.67-1.656-3.275 0-1.344.49-2.404 1.469-3.184.904-.703 2.046-1.056 3.428-1.056 1.945 0 3.452.535 4.52 1.603l-2.071 2.069c-.526-.526-1.3-.79-2.315-.79-1.229 0-1.846.415-1.846 1.243 0 .563.559.931 1.676 1.093 1.569.237 2.6.489 3.088.754 1.115.625 1.674 1.773 1.674 3.443zm5.273 4.105h-3.296V13.91h3.296v13.408zm12.447-3.955c0 1.229-.388 2.197-1.158 2.9-.772.702-1.778 1.055-3.022 1.055h-5.838V13.91h5.557c1.279 0 2.297.32 3.05.961.815.689 1.226 1.664 1.226 2.918 0 1.105-.49 1.99-1.47 2.656 1.101.664 1.655 1.637 1.655 2.918zm-3.484-5.404c0-.729-.396-1.092-1.187-1.092h-2.053v2.184h2.053c.791 0 1.187-.363 1.187-1.092zm.188 5.217c0-.779-.401-1.168-1.205-1.168h-2.223v2.354h2.223c.804-.001 1.205-.395 1.205-1.186zm14.444 4.142h-8.927V13.91h3.296v10.471h5.631v2.937zm10.525 0h-9.114V13.91h9.114v2.938h-5.818v2.242h4.971v2.938h-4.971v2.354h5.818v2.936z" fill="#F1F1F1"/></svg>