<svg version="1.2" baseProfile="tiny" xmlns="http://www.w3.org/2000/svg" width="216" height="41"><path fill="#F1F1F1" d="M194.449 41H20.551C9.219 41 0 31.804 0 20.5S9.219 0 20.551 0h173.898C205.781 0 215 9.196 215 20.5S205.781 41 194.449 41zM20.551 1C9.771 1 1 9.748 1 20.5S9.771 40 20.551 40h173.898C205.229 40 214 31.252 214 20.5S205.229 1 194.449 1H20.551z"/><path d="M26.74 27.318h-3.445l-.622-1.996H18.55l-.659 1.996h-3.446l4.877-13.407h2.542l4.876 13.407zm-4.933-4.745l-1.13-3.578-1.205 3.578h2.335zm16.627 4.745h-2.881l-4.293-6.741v6.741h-3.296V13.911h2.882l4.293 6.741v-6.741h3.295v13.407zm5.724 0h-3.296V13.911h3.296v13.407zm14.933 0h-3.296v-6.421l-1.901 3.313h-2.109l-1.901-3.313v6.421h-3.296V13.911h3.239l3.013 5.913 3.013-5.913h3.239l-.001 13.407zm13.369 0h-3.445l-.622-1.996H64.27l-.659 1.996h-3.446l4.877-13.407h2.542l4.876 13.407zm-4.934-4.745l-1.13-3.578-1.205 3.578h2.335zm13.521-5.725h-3.296v10.47h-3.295v-10.47H71.16V13.91h9.887v2.938zm10.921 10.47h-9.114V13.911h9.114v2.938H86.15v2.241h4.971v2.938H86.15v2.354h5.818v2.936zm17.266-6.704v.584c0 1.08-.068 1.921-.207 2.523-.188.879-.57 1.613-1.147 2.203-.979 1.005-2.229 1.507-3.748 1.507-1.506 0-2.755-.502-3.747-1.507-.628-.64-1.029-1.469-1.205-2.485-.101-.54-.15-1.481-.15-2.825 0-1.343.05-2.284.15-2.824.176-1.017.577-1.846 1.205-2.485.979-1.004 2.229-1.507 3.747-1.507 1.507 0 2.756.503 3.748 1.507.627.64 1.028 1.469 1.205 2.485.101.552.149 1.494.149 2.824zm-3.295-1.054c0-1.884-.603-2.825-1.808-2.825-.74 0-1.255.333-1.544.998-.176.452-.264 1.111-.264 1.978 0 .126-.006.364-.019.716s-.019.628-.019.828c0 2.159.614 3.239 1.845 3.239.741 0 1.256-.346 1.545-1.036.175-.439.263-1.099.263-1.978l.001-1.92zm15.856 7.758h-2.881l-4.293-6.741v6.741h-3.296V13.911h2.882l4.293 6.741v-6.741h3.295v13.407zm17.021-10.47h-3.295v10.47h-3.295v-10.47h-3.297V13.91h9.887v2.938zm11.245 3.766v.584c0 1.08-.069 1.921-.207 2.523-.188.879-.571 1.613-1.148 2.203-.979 1.005-2.229 1.507-3.748 1.507-1.506 0-2.755-.502-3.747-1.507-.628-.64-1.028-1.469-1.205-2.485-.101-.54-.149-1.481-.149-2.825 0-1.343.049-2.284.149-2.824.177-1.017.577-1.846 1.205-2.485.979-1.004 2.229-1.507 3.747-1.507 1.507 0 2.756.503 3.748 1.507.627.64 1.027 1.469 1.205 2.485.098.552.15 1.494.15 2.824zm-3.297-1.054c0-1.884-.603-2.825-1.808-2.825-.74 0-1.255.333-1.544.998-.176.452-.264 1.111-.264 1.978 0 .126-.006.364-.02.716-.013.352-.02.628-.02.828 0 2.159.615 3.239 1.846 3.239.74 0 1.256-.346 1.545-1.036.175-.439.264-1.099.264-1.978v-1.92h.001zm15.272-1.337c0 1.28-.44 2.319-1.318 3.116-.879.797-1.965 1.195-3.258 1.195h-2.015v4.783h-3.297V13.911h5.312c1.293 0 2.373.39 3.239 1.167.891.816 1.337 1.864 1.337 3.145zm-3.296 0c0-.39-.139-.713-.414-.97a1.434 1.434 0 00-1.018-.387h-1.863v2.712h1.863c.401 0 .74-.129 1.018-.386s.414-.58.414-.969z" fill="#F1F1F1"/></svg>