<svg version="1.2" baseProfile="tiny" xmlns="http://www.w3.org/2000/svg" width="216" height="41"><g fill="#F1F1F1"><path d="M65.191 22.573h2.335l-1.13-3.578zm38.941-5.838c-.74 0-1.255.333-1.544.998-.176.452-.264 1.111-.264 1.978 0 .126-.006.364-.019.716s-.019.628-.019.828c0 2.159.614 3.239 1.845 3.239.741 0 1.256-.346 1.545-1.036.175-.439.263-1.099.263-1.978v-1.92c0-1.884-.602-2.825-1.807-2.825zm40.824 0c-.74 0-1.255.333-1.544.998-.176.452-.264 1.111-.264 1.978 0 .126-.006.364-.02.716-.013.352-.02.628-.02.828 0 2.159.615 3.239 1.846 3.239.74 0 1.256-.346 1.545-1.036.175-.439.264-1.099.264-1.978v-1.92c.001-1.884-.602-2.825-1.807-2.825zM19.472 22.573h2.335l-1.13-3.578zm137.839-5.706h-1.865v2.712h1.865c.4 0 .739-.129 1.017-.386.276-.258.414-.581.414-.97 0-.39-.138-.713-.414-.97a1.444 1.444 0 00-1.017-.386z"/><path d="M194.449 0H20.551C9.219 0 0 9.196 0 20.5S9.219 41 20.551 41h173.898C205.781 41 215 31.804 215 20.5S205.781 0 194.449 0zM23.295 27.318l-.622-1.996H18.55l-.659 1.996h-3.446l4.877-13.407h2.542l4.877 13.407h-3.446zm15.139 0h-2.881l-4.293-6.741v6.741h-3.296V13.911h2.882l4.293 6.741v-6.741h3.295v13.407zm5.724 0h-3.296V13.911h3.296v13.407zm14.933 0h-3.296v-6.421l-1.901 3.313h-2.109l-1.901-3.313v6.421h-3.296V13.911h3.239l3.013 5.913 3.013-5.913h3.239l-.001 13.407zm9.924 0l-.622-1.996H64.27l-.659 1.996h-3.446l4.877-13.407h2.542l4.877 13.407h-3.446zm12.032-10.47h-3.296v10.47h-3.295v-10.47H71.16V13.91h9.887v2.938zm10.921 0H86.15v2.241h4.971v2.938H86.15v2.354h5.818v2.938h-9.114V13.911h9.114v2.937zm17.266 4.35c0 1.08-.068 1.921-.207 2.523-.188.879-.57 1.613-1.147 2.203-.979 1.005-2.229 1.507-3.748 1.507-1.506 0-2.755-.502-3.747-1.507-.628-.64-1.029-1.469-1.205-2.485-.101-.54-.15-1.481-.15-2.825 0-1.343.05-2.284.15-2.824.176-1.017.577-1.846 1.205-2.485.979-1.004 2.229-1.507 3.747-1.507 1.507 0 2.756.503 3.748 1.507.627.64 1.028 1.469 1.205 2.485.101.553.149 1.494.149 2.824v.584zm12.561 6.12h-2.881l-4.293-6.741v6.741h-3.296V13.911h2.882l4.293 6.741v-6.741h3.295v13.407zm17.021-10.47h-3.295v10.47h-3.295v-10.47h-3.297V13.91h9.887v2.938zm11.245 4.35c0 1.08-.069 1.921-.207 2.523-.188.879-.571 1.613-1.148 2.203-.979 1.005-2.229 1.507-3.748 1.507-1.506 0-2.755-.502-3.747-1.507-.628-.64-1.028-1.469-1.205-2.485-.101-.54-.149-1.481-.149-2.825 0-1.343.049-2.284.149-2.824.177-1.017.577-1.846 1.205-2.485.979-1.004 2.229-1.507 3.747-1.507 1.507 0 2.756.503 3.748 1.507.627.64 1.027 1.469 1.205 2.485.1.553.15 1.494.15 2.824v.584zm10.657.141c-.879.797-1.965 1.195-3.258 1.195h-2.015v4.783h-3.297V13.911h5.312c1.293 0 2.373.39 3.239 1.167.891.816 1.337 1.864 1.337 3.146 0 1.279-.44 2.318-1.318 3.115z"/></g></svg>