<svg version="1.2" baseProfile="tiny" xmlns="http://www.w3.org/2000/svg" width="216" height="41"><g fill="#F1F1F1"><path d="M169.925 17.959c0-.729-.396-1.092-1.187-1.092h-2.053v2.184h2.053c.791 0 1.187-.363 1.187-1.092zm-65.793-1.225c-.74 0-1.255.334-1.544.998-.176.453-.264 1.11-.264 1.979 0 .125-.006.363-.019.715a23.64 23.64 0 00-.019.828c0 2.16.614 3.24 1.845 3.24.741 0 1.256-.346 1.545-1.037.175-.439.263-1.098.263-1.977v-1.92c0-1.884-.602-2.826-1.807-2.826zm-84.66 5.838h2.335l-1.13-3.578zm45.719 0h2.335l-1.13-3.578zm103.717-.564h-2.223v2.354h2.223c.804 0 1.205-.395 1.205-1.186 0-.78-.401-1.168-1.205-1.168z"/><path d="M194.449 0H20.551C9.219 0 0 9.195 0 20.5S9.219 41 20.551 41h173.898C205.781 41 215 31.805 215 20.5S205.781 0 194.449 0zM23.295 27.318l-.622-1.996H18.55l-.659 1.996h-3.446l4.877-13.408h2.542l4.877 13.408h-3.446zm15.139 0h-2.881l-4.293-6.742v6.742h-3.296V13.91h2.882l4.293 6.742V13.91h3.295v13.408zm5.724 0h-3.296V13.91h3.296v13.408zm14.933 0h-3.296v-6.422l-1.901 3.313h-2.109l-1.901-3.313v6.422h-3.296V13.91h3.239l3.013 5.914 3.013-5.914h3.239l-.001 13.408zm9.924 0l-.622-1.996H64.27l-.659 1.996h-3.446l4.877-13.408h2.542l4.877 13.408h-3.446zm12.032-10.47h-3.296v10.471h-3.295V16.848H71.16V13.91h9.887v2.938zm10.921 0H86.15v2.242h4.971v2.938H86.15v2.354h5.818v2.938h-9.114V13.91h9.114v2.938zm17.266 4.349c0 1.08-.068 1.922-.207 2.523-.188.879-.57 1.612-1.147 2.202-.979 1.007-2.229 1.509-3.748 1.509-1.506 0-2.755-.502-3.747-1.509-.628-.639-1.029-1.469-1.205-2.483-.101-.541-.15-1.482-.15-2.826 0-1.342.05-2.283.15-2.824.176-1.016.577-1.846 1.205-2.484.979-1.004 2.229-1.508 3.747-1.508 1.507 0 2.756.504 3.748 1.508.627.639 1.028 1.469 1.205 2.484.101.553.149 1.494.149 2.824v.584zm12.561 6.121h-2.881l-4.293-6.742v6.742h-3.296V13.91h2.882l4.293 6.742V13.91h3.295v13.408zm13.443 0h-2.447l-4.425-13.408h3.407l2.261 7.494 2.222-7.494h3.428l-4.446 13.408zm9.003 0h-3.296V13.91h3.296v13.408zm9.827-.904c-.953.678-2.141 1.018-3.559 1.018-2.246 0-3.941-.59-5.084-1.771l2.108-2.106c.641.627 1.639.94 2.993.94 1.281 0 1.922-.402 1.922-1.205 0-.654-.553-1.067-1.657-1.244-1.657-.289-2.681-.532-3.069-.733-1.104-.576-1.656-1.67-1.656-3.275 0-1.344.49-2.404 1.469-3.184.904-.703 2.046-1.056 3.428-1.056 1.945 0 3.452.535 4.52 1.603l-2.071 2.069c-.526-.526-1.3-.79-2.315-.79-1.229 0-1.846.415-1.846 1.243 0 .563.559.931 1.676 1.093 1.569.237 2.6.489 3.088.754 1.117.627 1.678 1.774 1.678 3.444-.004 1.354-.545 2.423-1.625 3.2zm6.894.904h-3.296V13.91h3.296v13.408zm11.289-1.054c-.772.703-1.778 1.055-3.022 1.055h-5.838V13.91h5.557c1.279 0 2.297.32 3.05.961.815.689 1.226 1.664 1.226 2.918 0 1.105-.49 1.99-1.47 2.656 1.104.664 1.657 1.637 1.657 2.918-.002 1.231-.39 2.198-1.16 2.901zm12.306 1.054h-8.927V13.91h3.296v10.471h5.631v2.937zm10.525-10.47h-5.818v2.242h4.971v2.938h-4.971v2.354h5.818v2.938h-9.114V13.91h9.114v2.938z"/></g></svg>