<svg version="1.2" baseProfile="tiny" xmlns="http://www.w3.org/2000/svg" width="768" height="768"><path fill="#fff" opacity=".3" d="M768 384C768 193.333 629.037 35.124 446.865 5.123c171.739 39.374 295.211 197.84 284.926 379.678-10.302 182.142-166.309 321.445-348.451 311.14-163.384-9.24-288.343-149.182-279.1-312.566 8.292-146.561 133.82-258.65 280.38-250.359 131.467 7.436 232.018 120.041 224.58 251.508-6.671 117.93-107.68 208.123-225.609 201.453-105.785-5.984-186.69-96.59-180.707-202.377 5.367-94.893 86.643-167.467 181.536-162.1 85.12 4.814 150.221 77.723 145.405 162.842-4.318 76.355-69.717 134.754-146.071 130.434-68.493-3.873-120.876-62.537-117.003-131.031 3.476-61.438 56.1-108.428 117.537-104.953 55.113 3.119 97.266 50.32 94.146 105.434-2.797 49.438-45.141 87.25-94.575 84.451-44.347-2.508-78.265-40.488-75.757-84.836 2.25-39.779 36.321-70.205 76.102-67.953 35.684 2.018 62.977 32.58 60.957 68.262-1.811 32.008-29.226 56.492-61.234 54.682-28.713-1.623-50.672-26.217-49.05-54.93 1.458-25.756 23.517-45.457 49.272-43.998 23.104 1.305 40.774 21.094 39.468 44.197-1.171 20.727-18.921 36.578-39.646 35.406-18.59-1.055-32.811-16.975-31.759-35.564.942-16.676 15.225-29.432 31.9-28.49 14.959.848 26.402 13.658 25.556 28.617-.759 13.418-12.25 23.684-25.668 22.924-12.037-.68-21.245-10.988-20.563-23.025.609-10.797 9.854-19.057 20.653-18.447 9.686.547 17.096 8.842 16.547 18.527-.491 8.689-7.93 15.336-16.619 14.844-7.793-.441-13.755-7.113-13.314-14.906.396-6.992 6.38-12.342 13.371-11.947 6.271.357 11.07 5.725 10.715 11.998-.317 5.623-5.133 9.93-10.759 9.611-5.047-.285-8.909-4.605-8.622-9.65.255-4.527 4.13-7.992 8.657-7.736 4.059.23 7.169 3.705 6.939 7.766a6.607 6.607 0 01-6.966 6.227 5.926 5.926 0 01-5.585-6.248 5.315 5.315 0 015.604-5.012 4.769 4.769 0 014.495 5.027 4.28 4.28 0 01-4.51 4.033 3.84 3.84 0 01-3.618-4.045 3.443 3.443 0 013.627-3.246 3.087 3.087 0 012.913 3.254 2.769 2.769 0 01-2.918 2.613 2.485 2.485 0 01-2.345-2.617 2.229 2.229 0 012.348-2.104 1.997 1.997 0 011.887 2.105 1.791 1.791 0 01-1.887 1.693s-.75.039-1.255-.52c-.438-.484-.484-1.469-.125-2.062s1.292-.848 1.292-.848a1.797 1.797 0 00-1.888 1.693 1.996 1.996 0 001.888 2.105 2.226 2.226 0 002.348-2.104 2.485 2.485 0 00-2.344-2.617 2.771 2.771 0 00-2.918 2.615 3.085 3.085 0 002.912 3.252 3.442 3.442 0 003.627-3.246 3.84 3.84 0 00-3.619-4.045 4.282 4.282 0 00-4.509 4.035 4.77 4.77 0 004.495 5.025 5.314 5.314 0 005.604-5.01 5.925 5.925 0 00-5.585-6.248 6.604 6.604 0 00-6.965 6.225 7.364 7.364 0 006.939 7.766c4.527.258 8.4-3.207 8.657-7.734.286-5.047-3.577-9.365-8.622-9.652-5.627-.316-10.442 3.988-10.76 9.613-.355 6.271 4.443 11.641 10.715 11.996 6.992.395 12.977-4.955 13.371-11.947.441-7.793-5.521-14.465-13.313-14.906-8.688-.49-16.129 6.154-16.62 14.844-.549 9.686 6.861 17.979 16.548 18.529 10.797.609 20.044-7.65 20.653-18.449.681-12.035-8.526-22.344-20.564-23.023-13.417-.762-24.909 9.506-25.667 22.922-.847 14.959 10.597 27.771 25.554 28.619 16.677.941 30.959-11.814 31.902-28.49 1.052-18.592-13.169-34.514-31.759-35.564-20.725-1.172-38.476 14.68-39.647 35.404-1.306 23.104 16.365 42.893 39.469 44.199 25.757 1.457 47.815-18.244 49.271-43.998 1.625-28.713-20.335-53.307-49.049-54.932-32.009-1.811-59.424 22.674-61.234 54.682-2.019 35.684 25.275 66.246 60.957 68.264 39.78 2.25 73.852-28.174 76.102-67.955 2.508-44.344-31.41-82.326-75.756-84.836-49.438-2.797-91.779 35.016-94.576 84.453-3.117 55.111 39.033 102.314 94.146 105.432 61.438 3.477 114.062-43.514 117.537-104.953 3.874-68.492-48.51-127.156-117.003-131.031-76.354-4.318-141.753 54.078-146.071 130.434-4.815 85.119 60.285 158.027 145.404 162.842 94.895 5.367 176.172-67.205 181.537-162.1C571.115 278.6 490.21 187.992 384.425 182.01c-117.93-6.67-218.938 83.523-225.609 201.451-7.436 131.469 93.111 244.072 224.58 251.51 146.56 8.289 272.09-103.801 280.38-250.359C673.019 221.227 548.06 81.285 384.675 72.043c-182.141-10.305-338.148 129-348.45 311.141-10.29 181.922 113.297 340.448 285.159 379.733A386.675 386.675 0 00384 768c212.078 0 384-171.923 384-384z"/></svg>